<?xml version="1.0" encoding="UTF-8"?>
<svg version="1.1" xmlns="http://www.w3.org/2000/svg" width="1024" height="1024">
<path d="M0 0 C337.92 0 675.84 0 1024 0 C1024 337.92 1024 675.84 1024 1024 C686.08 1024 348.16 1024 0 1024 C0 686.08 0 348.16 0 0 Z " fill="#FDFDFD" transform="translate(0,0)"/>
<path d="M0 0 C2.37402344 1.13232422 2.37402344 1.13232422 4.859375 2.5546875 C5.79692627 3.08151123 6.73447754 3.60833496 7.70043945 4.15112305 C8.70679443 4.72000244 9.71314941 5.28888184 10.75 5.875 C40.25005207 22.15777294 71.60135152 33.11915219 104 42 C104 58.5 104 75 104 92 C102 92 102 92 100 90.0625 C99.55398438 89.60359375 99.10796875 89.1446875 98.6484375 88.671875 C80.16538002 69.92602524 56.4783061 58.09393672 31 52 C29.8975293 51.73147217 28.79505859 51.46294434 27.65917969 51.1862793 C18.7118495 49.18571108 10.30238623 48.5575575 1.16601562 48.66381836 C-0.99907749 48.68748991 -3.162934 48.68433557 -5.328125 48.67773438 C-18.12648597 48.70157251 -30.66931166 49.80287482 -42.9375 53.6875 C-43.77812988 53.94805176 -44.61875977 54.20860352 -45.48486328 54.47705078 C-64.17319504 60.44020866 -80.91375978 69.47247125 -96 82 C-96.94746094 82.78117187 -97.89492188 83.56234375 -98.87109375 84.3671875 C-120.17925038 102.80403225 -135.24413301 130.58768348 -141 158 C-141.20625 158.89976562 -141.4125 159.79953125 -141.625 160.7265625 C-148.58243632 196.57668574 -139.17608896 235.22019351 -119.39941406 265.44628906 C-114.97288209 271.93204054 -110.23612218 278.17556689 -105.375 284.33984375 C-91.70017136 301.71827181 -78.74782801 321.11859869 -75.125 343.3125 C-74.21837896 347.94714674 -72.931895 350.15565043 -69 353 C-62.44717372 356.97352232 -55.58286269 357.97576136 -48.05664062 358.7734375 C-45.95456505 359.00500518 -43.8617228 359.2822629 -41.765625 359.5625 C-11.2161778 363.34041494 35.57461466 367.29492644 63 352 C63.66 352 64.32 352 65 352 C67.417583 347.33751851 69.12005397 343.02779041 69.875 337.8125 C73.69669002 316.33688372 89.21202233 298.90644273 102.95166016 282.81005859 C112.28622559 271.83308648 120.66728729 260.082933 129.18554688 248.47167969 C131.53904655 245.26570139 133.89825999 242.06395786 136.25830078 238.86279297 C137.4239184 237.28151355 138.58895319 235.69980435 139.75341797 234.11767578 C142.63612394 230.20159233 145.52534508 226.29069462 148.4296875 222.390625 C159.71742933 207.20569575 170.59958707 191.73182278 181.04370117 175.95385742 C184.95522875 170.04770441 188.91141036 164.17190516 192.88308716 158.30609131 C193.66746012 157.14650933 194.45056865 155.98607102 195.23239136 154.82476807 C196.33004855 153.19477772 197.43249787 151.56801756 198.53515625 149.94140625 C199.178479 148.98951416 199.82180176 148.03762207 200.48461914 147.05688477 C201.23473267 146.03872681 201.23473267 146.03872681 202 145 C202.33 145 202.66 145 203 145 C203.14911958 155.97593741 202.79528053 166.81215316 201.875 177.75 C201.81230927 178.51103027 201.74961853 179.27206055 201.68502808 180.05615234 C200.29061315 196.61031093 197.70006395 212.90653963 194.69042969 229.23583984 C194.11766006 232.358528 193.57097089 235.48347593 193.0390625 238.61328125 C183.97449628 289.91872608 161.61849158 338.30724534 128 378 C127.27683594 378.8559375 126.55367187 379.711875 125.80859375 380.59375 C114.91631357 393.04207021 103.04136839 404.82574161 90 415 C88.05913297 416.64186138 86.12178676 418.28789145 84.1875 419.9375 C77.70956267 425.33439516 70.94796024 430.22850923 64 435 C63.32195312 435.46664063 62.64390625 435.93328125 61.9453125 436.4140625 C46.29866421 447.13173001 30.18666776 456.94731778 13.43722534 465.84698486 C11.65702632 466.79543706 9.88421265 467.75770967 8.11157227 468.72021484 C7.01514404 469.29336426 5.91871582 469.86651367 4.7890625 470.45703125 C3.81662598 470.97241455 2.84418945 471.48779785 1.84228516 472.01879883 C-2.49089125 473.51467891 -5.48519804 472.63464008 -9.62695312 470.89941406 C-10.50287109 470.44276367 -11.37878906 469.98611328 -12.28125 469.515625 C-13.27697021 468.9992749 -14.27269043 468.4829248 -15.29858398 467.95092773 C-16.35505127 467.38962158 -17.41151855 466.82831543 -18.5 466.25 C-19.60351807 465.66871338 -20.70703613 465.08742676 -21.84399414 464.48852539 C-51.47720911 448.73520534 -79.97285156 430.45670946 -105 408 C-105.52142578 407.5349707 -106.04285156 407.06994141 -106.58007812 406.59082031 C-117.55826282 396.77365765 -127.92319084 386.62647466 -137 375 C-137.72292236 374.09169434 -137.72292236 374.09169434 -138.46044922 373.16503906 C-190.86974672 307.28186483 -210.31105983 220.14346436 -210.09765625 137.31640625 C-210.09578693 135.16308119 -210.09436546 133.0097557 -210.09336853 130.85643005 C-210.0895838 125.23911324 -210.07978892 119.62182303 -210.06866455 114.0045166 C-210.05836261 108.25236369 -210.05385225 102.50020639 -210.04882812 96.74804688 C-210.03816229 85.49868634 -210.02113557 74.2493454 -210 63 C-208.87123444 62.8134787 -207.74246887 62.6269574 -206.57949829 62.43478394 C-176.81887436 57.57654104 -176.81887436 57.57654104 -147.375 51.125 C-145.62505231 50.69688898 -143.87505076 50.2689981 -142.125 49.84130859 C-122.53671733 45.01410447 -6.12890686 -1.65232469 0 0 Z " fill="#122B62" transform="translate(515,172)"/>
<path d="M0 0 C0.33 0 0.66 0 1 0 C1.14911958 10.97593741 0.79528053 21.81215316 -0.125 32.75 C-0.2190361 33.89154541 -0.2190361 33.89154541 -0.31497192 35.05615234 C-1.70938685 51.61031093 -4.29993605 67.90653963 -7.30957031 84.23583984 C-7.88233994 87.358528 -8.42902911 90.48347593 -8.9609375 93.61328125 C-18.02550372 144.91872608 -40.38150842 193.30724534 -74 233 C-74.72316406 233.8559375 -75.44632813 234.711875 -76.19140625 235.59375 C-87.08368643 248.04207021 -98.95863161 259.82574161 -112 270 C-113.94086703 271.64186138 -115.87821324 273.28789145 -117.8125 274.9375 C-124.29043733 280.33439516 -131.05203976 285.22850923 -138 290 C-138.67804688 290.46664063 -139.35609375 290.93328125 -140.0546875 291.4140625 C-155.73246858 302.1530554 -171.8653392 311.97568582 -188.67263794 320.84698486 C-189.88459369 321.48734052 -191.09464695 322.13131074 -192.30270386 322.7789917 C-193.99715368 323.68438525 -195.70153677 324.57111337 -197.40625 325.45703125 C-198.38916016 325.97241455 -199.37207031 326.48779785 -200.38476562 327.01879883 C-203.17681177 328.06633743 -204.27574913 328.08768537 -207 327 C-206.34 327 -205.68 327 -205 327 C-205.495 309.675 -205.495 309.675 -206 292 C-214.61628436 292.1971431 -214.61628436 292.1971431 -223.23095703 292.45043945 C-233.16943696 292.56521105 -233.16943696 292.56521105 -236.82421875 289.640625 C-239 287 -239 287 -239.6875 284.4375 C-238.70058594 280.93844107 -237.01269784 279.96490321 -234 278 C-230.86206055 277.54589844 -230.86206055 277.54589844 -227.38671875 277.609375 C-226.13955078 277.62226562 -224.89238281 277.63515625 -223.60742188 277.6484375 C-222.31384766 277.68195313 -221.02027344 277.71546875 -219.6875 277.75 C-218.37458984 277.76804687 -217.06167969 277.78609375 -215.70898438 277.8046875 C-212.47234385 277.85176591 -209.23607897 277.923507 -206 278 C-206 274.04 -206 270.08 -206 266 C-207.96005981 266.03927612 -207.96005981 266.03927612 -209.9597168 266.0793457 C-214.81435988 266.16994324 -219.66892845 266.22728445 -224.52416992 266.2746582 C-226.6242327 266.29978051 -228.72420823 266.33388458 -230.82397461 266.37719727 C-233.8451084 266.43794871 -236.86508496 266.46623263 -239.88671875 266.48828125 C-240.82335861 266.51408768 -241.75999847 266.5398941 -242.72502136 266.56648254 C-247.33726132 266.5684607 -249.3463625 266.49447501 -253.12817383 263.63354492 C-255 261 -255 261 -255.0625 258.375 C-253.78443152 255.51814105 -252.64378156 254.63480186 -250 253 C-247.81060791 252.63923645 -247.81060791 252.63923645 -245.41503906 252.65942383 C-244.51440735 252.65965042 -243.61377563 252.65987701 -242.68585205 252.66011047 C-241.72217712 252.67559433 -240.7585022 252.69107819 -239.765625 252.70703125 C-238.27588165 252.71339851 -238.27588165 252.71339851 -236.75604248 252.71989441 C-233.58708472 252.73667366 -230.41876522 252.774325 -227.25 252.8125 C-225.10026961 252.82754779 -222.95052924 252.84123603 -220.80078125 252.85351562 C-215.53360862 252.88657482 -210.26691249 252.93835246 -205 253 C-205 249.04 -205 245.08 -205 241 C-206.61487305 241.02094727 -208.22974609 241.04189453 -209.89355469 241.06347656 C-215.87946725 241.13582445 -221.86534109 241.18178145 -227.8515625 241.21972656 C-230.44342546 241.23985375 -233.03524296 241.26715816 -235.62695312 241.30175781 C-239.35037449 241.35022501 -243.07319599 241.37295816 -246.796875 241.390625 C-248.53768341 241.42159271 -248.53768341 241.42159271 -250.31365967 241.45318604 C-251.93488739 241.45363922 -251.93488739 241.45363922 -253.58886719 241.45410156 C-254.53928894 241.46298401 -255.48971069 241.47186646 -256.46893311 241.48101807 C-259.7721226 240.85326152 -260.9549388 239.61878677 -263 237 C-263.44753264 233.86727153 -263.69016146 231.9636749 -261.80949402 229.33769226 C-259.32695023 227.5024391 -257.68147855 227.63834225 -254.6105957 227.65942383 C-253.50968094 227.65965042 -252.40876617 227.65987701 -251.27449036 227.66011047 C-250.08691635 227.67559433 -248.89934235 227.69107819 -247.67578125 227.70703125 C-246.45924362 227.71127609 -245.24270599 227.71552094 -243.98930359 227.71989441 C-240.09681229 227.73671149 -236.20483529 227.77437041 -232.3125 227.8125 C-229.67643976 227.82754287 -227.04037142 227.84123196 -224.40429688 227.85351562 C-217.93599921 227.88662512 -211.46808685 227.93842924 -205 228 C-205 224.37 -205 220.74 -205 217 C-203.7404248 216.92483154 -202.48084961 216.84966309 -201.18310547 216.7722168 C-196.44477319 216.48658075 -191.70741788 216.18680071 -186.97021484 215.88305664 C-184.93203824 215.75428401 -182.89362543 215.62918874 -180.85498047 215.50805664 C-159.15477421 214.43734398 -159.15477421 214.43734398 -139 207 C-138.34 207 -137.68 207 -137 207 C-134.582417 202.33751851 -132.87994603 198.02779041 -132.125 192.8125 C-128.30330998 171.33688372 -112.78797767 153.90644273 -99.04833984 137.81005859 C-89.71377441 126.83308648 -81.33271271 115.082933 -72.81445312 103.47167969 C-70.46095345 100.26570139 -68.10174001 97.06395786 -65.74169922 93.86279297 C-64.5760816 92.28151355 -63.41104681 90.69980435 -62.24658203 89.11767578 C-59.36387606 85.20159233 -56.47465492 81.29069462 -53.5703125 77.390625 C-42.28257067 62.20569575 -31.40041293 46.73182278 -20.95629883 30.95385742 C-17.04477125 25.04770441 -13.08858964 19.17190516 -9.11691284 13.30609131 C-8.33253988 12.14650933 -7.54943135 10.98607102 -6.76760864 9.82476807 C-5.66995145 8.19477772 -4.56750213 6.56801756 -3.46484375 4.94140625 C-2.49985962 3.51356812 -2.49985962 3.51356812 -1.51538086 2.05688477 C-0.76526733 1.03872681 -0.76526733 1.03872681 0 0 Z " fill="#295A9C" transform="translate(717,317)"/>
<path d="M0 0 C19.74842133 16.14169494 40.87961027 40.54151796 45.41235352 66.57470703 C44.74489454 70.30184523 42.64486002 71.80715009 39.90844727 74.35205078 C36.60640648 77.48552365 33.38496369 80.59668139 30.47094727 84.10205078 C26.12357438 89.18985214 21.17136873 93.83091782 15.97094727 98.03955078 C15.31094727 98.03955078 14.65094727 98.03955078 13.97094727 98.03955078 C13.81239258 97.05857422 13.65383789 96.07759766 13.49047852 95.06689453 C9.93407033 74.04649821 2.35857859 54.10310399 -12.02905273 38.03955078 C-12.48151367 37.44658203 -12.93397461 36.85361328 -13.40014648 36.24267578 C-26.32451023 19.52154049 -50.53583287 7.90874195 -71.02905273 5.03955078 C-85.15598603 4.06159867 -99.79397001 3.4729341 -113.02905273 9.03955078 C-114.34917852 9.55435276 -115.66950272 10.06864611 -116.98999023 10.58251953 C-143.22928168 21.1313196 -163.87352263 41.06091903 -175.02905273 67.03955078 C-182.31862793 86.41236357 -182.6819593 109.47461683 -176.02905273 129.03955078 C-175.82006348 129.69181641 -175.61107422 130.34408203 -175.39575195 131.01611328 C-170.95909601 144.78802505 -163.86640092 156.4998038 -155.24389648 168.05908203 C-102.12668795 239.53779475 -102.12668795 239.53779475 -104.02905273 257.03955078 C-105.62755913 259.19185041 -106.52174121 259.9481174 -109.18286133 260.42773438 C-110.00608887 260.43111816 -110.82931641 260.43450195 -111.67749023 260.43798828 C-112.59481934 260.44411133 -113.51214844 260.45023438 -114.45727539 260.45654297 C-115.42971191 260.44268555 -116.40214844 260.42882812 -117.40405273 260.41455078 C-118.39324707 260.40584961 -119.38244141 260.39714844 -120.40161133 260.38818359 C-137.96027096 260.03798636 -137.96027096 260.03798636 -144.19702148 255.44189453 C-146.67258266 252.19568958 -147.60532805 248.71530885 -148.71655273 244.85205078 C-155.6852782 222.62534247 -169.76910588 203.69122306 -184.57202148 186.00048828 C-199.41557438 167.93813888 -209.2252895 147.90361617 -214.02905273 125.03955078 C-214.36936523 123.43466797 -214.36936523 123.43466797 -214.71655273 121.79736328 C-217.97839492 103.26828752 -216.87675426 84.14868769 -212.02905273 66.03955078 C-211.85776855 65.37842285 -211.68648438 64.71729492 -211.51000977 64.03613281 C-203.38547793 33.68425549 -181.56996284 6.21968518 -154.48461914 -9.43066406 C-141.67979449 -16.54752348 -129.2211792 -22.56163878 -114.84155273 -25.64794922 C-113.89602539 -25.86 -112.95049805 -26.07205078 -111.97631836 -26.29052734 C-72.56976984 -34.99566733 -31.62540484 -24.91788055 0 0 Z " fill="#122B62" transform="translate(597.029052734375,257.96044921875)"/>
<path d="M0 0 C0.66 0.33 1.32 0.66 2 1 C1.35933594 1.88300781 0.71867187 2.76601562 0.05859375 3.67578125 C-0.81526358 4.88790593 -1.68895222 6.10015222 -2.5625 7.3125 C-2.98080078 7.88806641 -3.39910156 8.46363281 -3.83007812 9.05664062 C-6.46758952 12.72535948 -8.94990099 16.46241014 -11.359375 20.28515625 C-14.97604368 26.01388468 -18.80005975 31.57756659 -22.6875 37.125 C-23.38665527 38.12635986 -24.08581055 39.12771973 -24.80615234 40.15942383 C-29.37077215 46.69112025 -33.95430358 53.20944459 -38.55908203 59.71289062 C-41.20765876 63.45437448 -43.84367266 67.20409593 -46.46484375 70.96484375 C-52.62293934 79.79986173 -58.83516761 88.58018682 -65.234375 97.2421875 C-68.29416308 101.38720976 -71.30269669 105.56861656 -74.3125 109.75 C-80.55982306 118.41920505 -86.89174517 127.02420968 -93.24267578 135.61767578 C-94.9775979 137.9696305 -96.70655144 140.32584839 -98.43359375 142.68359375 C-105.25191842 151.98404059 -112.1647517 161.20493393 -119.17260742 170.36352539 C-122.7212079 175.00208086 -126.24472662 179.656418 -129.72631836 184.34545898 C-135.24372536 191.77298584 -140.98839858 198.98067348 -146.84765625 206.140625 C-171.1625719 235.18123962 -171.1625719 235.18123962 -185.65991211 269.65600586 C-186.76241274 273.75475969 -187.6109403 276.21969736 -191.359375 278.44140625 C-203.33992762 283.57041966 -217.9508402 285.62810705 -230.671875 281.93359375 C-241.7242989 276.7860816 -247.64963697 268.52495381 -253.53955078 258.23486328 C-255.82027839 254.28409345 -258.185047 250.39384446 -260.60546875 246.52734375 C-261.03412735 245.84228256 -261.46278595 245.15722137 -261.9044342 244.45140076 C-266.31870796 237.43536529 -270.90749168 230.53975412 -275.52923584 223.65927124 C-277.9429025 220.06555141 -280.34844385 216.46640206 -282.75390625 212.8671875 C-283.21804932 212.17294174 -283.68219238 211.47869598 -284.16040039 210.76341248 C-288.43774539 204.35861213 -292.6318425 197.90262991 -296.79296875 191.421875 C-300.12548766 186.23500625 -303.55983055 181.11589669 -307 176 C-306.505 175.01 -306.505 175.01 -306 174 C-305.33355469 174.75023437 -304.66710937 175.50046875 -303.98046875 176.2734375 C-287.37343925 194.79912252 -268.1283952 211.09237972 -242.375 213.3125 C-216.72125537 212.8182082 -198.63427753 189.78735173 -182.12837791 173.20354271 C-179.35937835 170.42160458 -176.58717979 167.64287684 -173.81404114 164.86506653 C-167.93551114 158.97554955 -162.0612817 153.08175202 -156.1875 147.1875 C-149.35698363 140.33323004 -142.52473135 133.48070762 -135.68828773 126.63234901 C-132.96762659 123.9052442 -130.25001219 121.17512856 -127.53251648 118.44487 C-125.8567061 116.76542555 -124.1807543 115.08612221 -122.50463867 113.40698242 C-121.75901169 112.65618912 -121.0133847 111.90539581 -120.24516296 111.1318512 C-116.207942 107.09422791 -112.08028851 103.2313719 -107.74245167 99.51759815 C-105.11758879 97.23145895 -102.69614877 94.78974389 -100.25 92.3125 C-99.74758789 91.80630127 -99.24517578 91.30010254 -98.72753906 90.77856445 C-97.14917288 89.1881815 -95.57414991 87.59455555 -94 86 C-82.00009885 73.84454458 -82.00009885 73.84454458 -75.640625 68.41796875 C-73.48072328 66.55119655 -71.48713931 64.54828205 -69.5 62.5 C-66.13548497 59.08939572 -62.65699183 55.91841115 -59.01953125 52.8046875 C-56.80995831 50.83017551 -54.75497051 48.74755409 -52.6875 46.625 C-48.56420815 42.43761553 -44.13837469 38.78667669 -39.5546875 35.1171875 C-37.39668409 33.32875042 -35.44097769 31.51527349 -33.5 29.5 C-29.88871031 25.75942787 -25.8806962 22.58609502 -21.8359375 19.328125 C-18.24227606 16.37795666 -14.80436974 13.27814018 -11.3671875 10.1484375 C-8.4447374 7.4960488 -5.47464885 4.90150564 -2.49609375 2.3125 C-1.64347059 1.56450684 -0.80201622 0.80201622 0 0 Z " fill="#132C62" transform="translate(759,237)"/>
<path d="M0 0 C0.66 0.33 1.32 0.66 2 1 C1.26121661 2.1323975 0.50841355 3.2556547 -0.25 4.375 C-0.66765625 5.00148437 -1.0853125 5.62796875 -1.515625 6.2734375 C-3 8 -3 8 -4.88085938 8.89892578 C-7.21767207 10.1130992 -8.59814436 11.42360571 -10.390625 13.34375 C-11.01372559 14.00810059 -11.63682617 14.67245117 -12.27880859 15.35693359 C-12.92930176 16.06414551 -13.57979492 16.77135742 -14.25 17.5 C-14.92240723 18.22396973 -15.59481445 18.94793945 -16.28759766 19.69384766 C-20.45650753 24.21798781 -24.4173078 28.84101745 -28.1796875 33.7109375 C-30.19009501 36.23904651 -32.32189192 38.61515624 -34.5 41 C-38.10837549 44.95876289 -41.46828431 49.04643952 -44.78515625 53.25 C-48.87722755 58.3308081 -53.16910738 63.24288581 -57.43115234 68.18115234 C-59.98054134 71.13679318 -62.5219059 74.09929896 -65.0625 77.0625 C-65.80838379 77.93213379 -65.80838379 77.93213379 -66.56933594 78.81933594 C-69.89478842 82.70011512 -73.20252258 86.59543576 -76.5 90.5 C-80.29529944 94.99403849 -84.10790883 99.47264212 -87.9375 103.9375 C-88.43419189 104.51669189 -88.93088379 105.09588379 -89.44262695 105.69262695 C-91.99510418 108.66756041 -94.55069982 111.6397708 -97.109375 114.609375 C-102.37542238 120.72744205 -107.56823486 126.88840527 -112.65625 133.15625 C-115.89963763 137.09156033 -119.23146797 140.94819302 -122.56079102 144.81079102 C-125.57245009 148.31235302 -128.5305895 151.84786557 -131.4375 155.4375 C-135.57764224 160.53941756 -139.87545383 165.49154918 -144.1940918 170.44189453 C-147.44731974 174.18017347 -150.63253025 177.95926379 -153.75 181.8125 C-157.27785965 186.17082296 -160.97735796 190.32957987 -164.75390625 194.47265625 C-167.06187598 197.06962393 -169.25555863 199.73404013 -171.4375 202.4375 C-175.34940464 207.27105756 -179.4541013 211.88098472 -183.67578125 216.4453125 C-185.63657538 218.60053832 -187.4753566 220.80349404 -189.3125 223.0625 C-198.59615845 233.62891219 -211.19669457 241.64106681 -225.375 243.2734375 C-244.58522014 244.01669006 -259.81926418 229.19601046 -273.12890625 217.05859375 C-277.45869672 212.88953797 -281.10010222 208.19553601 -284.859375 203.515625 C-287.36235813 200.57416308 -289.97973439 198.38811699 -293 196 C-295.96349288 192.49713929 -298.56995461 188.80828057 -301.125 185 C-302.14980469 183.4840625 -302.14980469 183.4840625 -303.1953125 181.9375 C-304.79960354 179.32618645 -305.9736437 176.87803004 -307 174 C-304.42145695 176.56452923 -301.86495366 179.14040847 -299.34375 181.76171875 C-283.64688648 198.00804153 -265.50854817 211.31822861 -242.375 213.3125 C-216.72125537 212.8182082 -198.63427753 189.78735173 -182.12837791 173.20354271 C-179.35937835 170.42160458 -176.58717979 167.64287684 -173.81404114 164.86506653 C-167.93551114 158.97554955 -162.0612817 153.08175202 -156.1875 147.1875 C-149.35698363 140.33323004 -142.52473135 133.48070762 -135.68828773 126.63234901 C-132.96762659 123.9052442 -130.25001219 121.17512856 -127.53251648 118.44487 C-125.8567061 116.76542555 -124.1807543 115.08612221 -122.50463867 113.40698242 C-121.75901169 112.65618912 -121.0133847 111.90539581 -120.24516296 111.1318512 C-116.207942 107.09422791 -112.08028851 103.2313719 -107.74245167 99.51759815 C-105.11758879 97.23145895 -102.69614877 94.78974389 -100.25 92.3125 C-99.74758789 91.80630127 -99.24517578 91.30010254 -98.72753906 90.77856445 C-97.14917288 89.1881815 -95.57414991 87.59455555 -94 86 C-82.00009885 73.84454458 -82.00009885 73.84454458 -75.640625 68.41796875 C-73.48072328 66.55119655 -71.48713931 64.54828205 -69.5 62.5 C-66.13548497 59.08939572 -62.65699183 55.91841115 -59.01953125 52.8046875 C-56.80995831 50.83017551 -54.75497051 48.74755409 -52.6875 46.625 C-48.56420815 42.43761553 -44.13837469 38.78667669 -39.5546875 35.1171875 C-37.39668409 33.32875042 -35.44097769 31.51527349 -33.5 29.5 C-29.88871031 25.75942787 -25.8806962 22.58609502 -21.8359375 19.328125 C-18.24227606 16.37795666 -14.80436974 13.27814018 -11.3671875 10.1484375 C-8.4447374 7.4960488 -5.47464885 4.90150564 -2.49609375 2.3125 C-1.64347059 1.56450684 -0.80201622 0.80201622 0 0 Z " fill="#29599C" transform="translate(759,237)"/>
<path d="M0 0 C41.88621667 -0.94908346 77.447169 9.87007238 108.54858398 39.03369141 C123.22522888 53.31421924 138.85894325 74.9597714 142.44140625 95.53515625 C141.77394727 99.26229445 139.67391275 100.76759931 136.9375 103.3125 C133.63545921 106.44597286 130.41401642 109.55713061 127.5 113.0625 C123.15262712 118.15030135 118.20042147 122.79136704 113 127 C112.34 127 111.68 127 111 127 C110.76216797 125.52853516 110.76216797 125.52853516 110.51953125 124.02734375 C106.96312307 103.00694743 99.38763132 83.06355321 85 67 C84.54753906 66.40703125 84.09507812 65.8140625 83.62890625 65.203125 C70.58310815 48.32488176 46.57920939 37.15383751 26 34 C22.29386584 33.66429707 18.5935764 33.50034527 14.875 33.375 C13.91851563 33.33632813 12.96203125 33.29765625 11.9765625 33.2578125 C9.65121801 33.16479872 7.32585665 33.07896229 5 33 C5 32.67 5 32.34 5 32 C8.465 31.505 8.465 31.505 12 31 C12 21.1 12 11.2 12 1 C8.04 1 4.08 1 0 1 C0 0.67 0 0.34 0 0 Z " fill="#2A5A9C" transform="translate(500,229)"/>
<path d="M0 0 C4.22636685 0.84527337 6.28406751 1.50854394 9.859375 3.5546875 C10.79692627 4.08151123 11.73447754 4.60833496 12.70043945 5.15112305 C13.70679443 5.72000244 14.71314941 6.28888184 15.75 6.875 C45.25005207 23.15777294 76.60135152 34.11915219 109 43 C109 59.5 109 76 109 93 C107 93 107 93 105 91.0625 C104.55398438 90.60359375 104.10796875 90.1446875 103.6484375 89.671875 C84.99721938 70.75547368 61.53831338 59.50249932 36 53 C34.78828125 52.67257813 33.5765625 52.34515625 32.328125 52.0078125 C20.11314406 49.10606364 7.49504366 49.25697113 -5 49 C-5 48.67 -5 48.34 -5 48 C-3.02 48 -1.04 48 1 48 C0.67 32.16 0.34 16.32 0 0 Z " fill="#2A5B9C" transform="translate(510,171)"/>
<path d="M0 0 C13.2 0 26.4 0 40 0 C40 13.2 40 26.4 40 40 C26.8 40 13.6 40 0 40 C0 26.8 0 13.6 0 0 Z " fill="#2E5D9C" transform="translate(637,216)"/>
<path d="M0 0 C1.34798676 -0.01485695 1.34798676 -0.01485695 2.72320557 -0.03001404 C3.70666458 -0.02551239 4.6901236 -0.02101074 5.7033844 -0.01637268 C6.74102936 -0.02323593 7.77867432 -0.03009918 8.84776306 -0.03717041 C12.28618458 -0.0555084 15.72415287 -0.0515908 19.16261292 -0.0459137 C21.54771067 -0.05047218 23.9328071 -0.05577675 26.31790161 -0.0617981 C31.3206363 -0.07074302 36.32321146 -0.06829035 41.32594299 -0.05836487 C47.74341193 -0.0468746 54.16033069 -0.06708116 60.57772732 -0.09628201 C65.50447093 -0.11461038 70.43108189 -0.11435821 75.35785103 -0.10864449 C77.72418553 -0.10849085 80.09052879 -0.11456954 82.45683098 -0.12693596 C85.76332687 -0.1417799 89.06879608 -0.13121656 92.3752594 -0.11402893 C93.84741158 -0.12853088 93.84741158 -0.12853088 95.3493042 -0.14332581 C101.943127 -0.0713944 101.943127 -0.0713944 105.2472229 2.22372437 C106.60401917 4.38768005 106.60401917 4.38768005 106.54151917 7.51268005 C105.60401917 10.38768005 105.60401917 10.38768005 102.60401917 12.38768005 C100.57219696 12.64215565 100.57219696 12.64215565 98.2013092 12.64837646 C97.30120621 12.65546127 96.40110321 12.66254608 95.47372437 12.66984558 C94.48869431 12.66736816 93.50366425 12.66489075 92.48878479 12.66233826 C90.92990791 12.67000465 90.92990791 12.67000465 89.33953857 12.67782593 C85.89639057 12.69175238 82.45344202 12.69076301 79.01026917 12.6884613 C76.62277654 12.69234621 74.23528461 12.69668045 71.84779358 12.70144653 C66.84089417 12.70891508 61.83406527 12.7086126 56.8271637 12.70335388 C50.40072387 12.69755486 43.97457184 12.71449788 37.54817963 12.73769855 C32.61720585 12.75240587 27.68630188 12.75331175 22.75531006 12.75018883 C20.38536 12.75070343 18.01540617 12.75596711 15.64547729 12.76600075 C12.33654378 12.77829115 9.02817749 12.77161804 5.71925354 12.75999451 C4.73422348 12.76763824 3.74919342 12.77528198 2.73431396 12.78315735 C1.83421097 12.77614304 0.93410797 12.76912872 0.00672913 12.76190186 C-0.77566383 12.7620696 -1.55805679 12.76223734 -2.36415863 12.76241016 C-4.94835043 12.28580622 -5.83303105 11.47130463 -7.39598083 9.38768005 C-8.03892891 4.24409546 -8.03892891 4.24409546 -6.14729214 1.72441006 C-3.94197634 0.04115033 -2.75614825 0.00857407 0 0 Z " fill="#F7FBFE" transform="translate(461.39598083496094,544.6123199462891)"/>
<path d="M0 0 C3.04069155 1.47705596 5.70351158 3.3970812 8.4375 5.375 C10.01919503 6.47891359 11.60256544 7.58043011 13.1875 8.6796875 C13.98414063 9.23624023 14.78078125 9.79279297 15.6015625 10.36621094 C19.94192949 13.32282086 24.44534889 16.02100891 28.96069336 18.70068359 C32.33728844 20.75462905 35.01784275 22.52765979 37 26 C37.54736274 29.67514986 37.42963766 31.35503326 35.35546875 34.46875 C32.71779478 37.30326531 30.2937095 38.75616059 26.875 40.5625 C22.54360429 42.89026876 18.41623412 45.34765919 14.39453125 48.18359375 C13.61287598 48.73136475 12.8312207 49.27913574 12.02587891 49.84350586 C10.49910709 50.92506222 8.98373921 52.02295176 7.48193359 53.13891602 C2.85109673 56.39538254 -0.4544991 57.59349119 -6.14135742 57.38867188 C-8 57 -8 57 -10 55 C-10.98576833 50.15330571 -10.98576833 50.15330571 -10 47 C-7.13123853 43.96691806 -3.59670346 42.0726056 0 40 C2.26247824 38.68438979 4.52368167 37.3666514 6.78344727 36.04638672 C8.33627598 35.14522473 9.89536907 34.25476629 11.46069336 33.37548828 C13.3389589 32.30430481 15.17431373 31.15852713 17 30 C17 29.34 17 28.68 17 28 C15.22256113 26.69007223 15.22256113 26.69007223 12.90625 25.42578125 C12.04 24.92240234 11.17375 24.41902344 10.28125 23.90039062 C8.45906047 22.86005348 6.63616884 21.82094491 4.8125 20.78320312 C-7.40874026 13.67511412 -7.40874026 13.67511412 -11 9 C-11.39443553 5.69534625 -11.32085301 4.47486245 -9.4375 1.6875 C-6.00547271 -0.6885189 -4.14059806 -0.47166087 0 0 Z " fill="#2B5B9B" transform="translate(548,328)"/>
<path d="M0 0 C3.1875 1 3.1875 1 5.1875 4 C5.625 6.875 5.625 6.875 5.1875 10 C0.80827839 15.38259787 -5.22682179 18.63457982 -11.0625 22.25 C-13.0683013 23.50426056 -15.07354137 24.75941926 -17.078125 26.015625 C-17.96274414 26.56508789 -18.84736328 27.11455078 -19.75878906 27.68066406 C-21.72313542 28.83972375 -21.72313542 28.83972375 -22.8125 30 C-22.24853516 30.33209473 -21.68457031 30.66418945 -21.10351562 31.00634766 C-18.50361662 32.54105463 -15.90806347 34.08297282 -13.3125 35.625 C-12.425625 36.14707031 -11.53875 36.66914063 -10.625 37.20703125 C1.78976496 44.6011192 1.78976496 44.6011192 5.1875 48 C5.87458519 51.68527513 5.9314244 53.64343197 4.125 56.9375 C1.00597715 58.64793188 -1.28689274 58.33459809 -4.8125 58 C-7.84965795 56.682807 -10.54826714 54.9367541 -13.3125 53.125 C-14.09061035 52.6304834 -14.8687207 52.1359668 -15.67041016 51.62646484 C-18.06128852 50.09951323 -20.43668963 48.55025828 -22.8125 47 C-24.26763166 46.07197911 -25.72333529 45.14485428 -27.1796875 44.21875 C-28.51674343 43.3558973 -29.85273719 42.49139574 -31.1875 41.625 C-31.79916016 41.23328613 -32.41082031 40.84157227 -33.04101562 40.43798828 C-37.57993788 37.42781802 -41.22681559 34.50246973 -42.5 29.0625 C-41.307986 23.75261945 -36.4427836 21.087296 -32.1003418 18.19116211 C-29.0218642 16.24333732 -25.92329666 14.33326056 -22.8125 12.4375 C-20.70702005 11.14667091 -18.60281992 9.85375163 -16.5 8.55859375 C-15.51410889 7.95257324 -14.52821777 7.34655273 -13.51245117 6.72216797 C-11.19207205 5.24211061 -8.99545206 3.692315 -6.80078125 2.03515625 C-3.8125 0 -3.8125 0 0 0 Z " fill="#162D5F" transform="translate(481.8125,327)"/>
<path d="M0 0 C4.54917678 1.58232236 4.54917678 1.58232236 5.875 4 C5.47423643 10.92634797 3.38135544 17.01375253 1.0859375 23.5234375 C0.70442535 24.62362213 0.32291321 25.72380676 -0.07015991 26.85733032 C-0.87849601 29.18336623 -1.69064048 31.50808174 -2.50634766 33.83154297 C-3.73286443 37.32617673 -4.94756108 40.8247333 -6.16015625 44.32421875 C-9.66891952 54.41548006 -13.22479878 64.49022756 -17.0234375 74.4765625 C-17.29604401 75.20757172 -17.56865051 75.93858093 -17.84951782 76.69174194 C-20.29134628 82.98922966 -20.29134628 82.98922966 -23.125 85 C-26.70453104 85.53312164 -28.46431496 85.40657541 -31.5625 83.5 C-33.79743872 79.92409805 -32.94536298 76.94641988 -32.125 73 C-31.16097858 69.59077632 -29.99913753 66.2656851 -28.80859375 62.9296875 C-28.47384537 61.97216583 -28.13909698 61.01464417 -27.79420471 60.02810669 C-26.72442182 56.97439404 -25.64353552 53.92474472 -24.5625 50.875 C-23.8632276 48.8817575 -23.16465431 46.88826959 -22.46679688 44.89453125 C-21.0729018 40.91853734 -19.66626045 36.94739772 -18.24951172 32.97949219 C-16.80082142 28.92175973 -15.38512666 24.85434221 -13.98876953 20.77832031 C-13.29620071 18.79221228 -12.60334071 16.80620575 -11.91015625 14.8203125 C-11.60315292 13.90522919 -11.2961496 12.99014587 -10.97984314 12.04733276 C-6.72542216 0 -6.72542216 0 0 0 Z " fill="#182E61" transform="translate(526.125,312)"/>
<path d="M0 0 C1.25852028 0.00607269 1.25852028 0.00607269 2.54246521 0.01226807 C3.42551331 0.00876343 4.3085614 0.00525879 5.21836853 0.00164795 C8.14752484 -0.00717945 11.07644106 -0.00131616 14.00559998 0.00543213 C16.03579759 0.00408565 18.0659949 0.00214526 20.09619141 -0.00036621 C24.35582034 -0.00331894 28.61536552 0.00098451 32.87498474 0.01031494 C38.34070991 0.02170229 43.80623852 0.01515545 49.27195644 0.00317001 C53.46604905 -0.00405074 57.66009492 -0.00175953 61.85418892 0.0034256 C63.86966538 0.00476187 65.88514606 0.00311515 67.9006176 -0.00153351 C70.71624389 -0.00660144 73.5315503 0.00111564 76.34715271 0.01226807 C77.184142 0.0082196 78.02113129 0.00417114 78.88348389 0 C82.77724278 0.02863321 84.69492691 0.06133758 88.00950623 2.27105713 C88.42278445 5.5084032 88.64973728 7.42711619 86.63450623 10.08355713 C82.90551108 12.80859204 79.32617759 12.44018305 74.87547302 12.46392822 C74.03465179 12.47210571 73.19383057 12.4802832 72.32752991 12.4887085 C69.53793555 12.51357263 66.7483921 12.53008076 63.95872498 12.54449463 C62.53108794 12.55248014 62.53108794 12.55248014 61.07460976 12.56062698 C56.03737315 12.58736252 51.00016136 12.60673645 45.96287537 12.62115479 C40.75719733 12.63780711 35.55215183 12.6825886 30.34671307 12.73352623 C26.34641788 12.76716424 22.3462735 12.77872841 18.34584999 12.78438187 C16.42687455 12.79110348 14.50790935 12.80634913 12.58907127 12.83027267 C9.90276244 12.86185476 7.21816838 12.86197178 4.53172302 12.85455322 C3.34312935 12.87916122 3.34312935 12.87916122 2.13052368 12.90426636 C-1.93143481 12.85835785 -3.78399967 12.43212218 -7.02703857 9.90255737 C-8.99049377 7.27105713 -8.99049377 7.27105713 -8.92799377 4.58355713 C-7.01330644 -0.13933831 -4.75868769 0.03512271 0 0 Z " fill="#F3F8FA" transform="translate(470.99049377441406,570.7289428710938)"/>
<path d="M0 0 C10.89 0 21.78 0 33 0 C33 10.89 33 21.78 33 33 C22.11 33 11.22 33 0 33 C0 22.11 0 11.22 0 0 Z " fill="#2E5C9A" transform="translate(692,197)"/>
<path d="M0 0 C9.57 0 19.14 0 29 0 C29 9.57 29 19.14 29 29 C19.43 29 9.86 29 0 29 C0 19.43 0 9.86 0 0 Z " fill="#2B5B9E" transform="translate(648,166)"/>
<path d="M0 0 C3.71567089 -0.07439764 7.43080491 -0.1258549 11.14697266 -0.16748047 C12.27941406 -0.1889917 13.41185547 -0.21050293 14.57861328 -0.23266602 C16.1496582 -0.23907104 16.1496582 -0.23907104 17.75244141 -0.24560547 C18.66533936 -0.25495117 19.5782373 -0.26429688 20.51879883 -0.27392578 C23.48665837 0.15951174 24.84051348 0.97778156 26.95947266 3.08251953 C27.52197266 6.58251953 27.52197266 6.58251953 26.95947266 10.08251953 C23.42408433 12.82595991 20.73207913 13.46200925 16.31469727 13.48657227 C14.65288673 13.50559853 14.65288673 13.50559853 12.95750427 13.52500916 C11.17763878 13.5206057 11.17763878 13.5206057 9.36181641 13.51611328 C8.13539932 13.52135513 6.90898224 13.52659698 5.645401 13.53199768 C3.05568193 13.53841489 0.46593371 13.53708483 -2.1237793 13.52856445 C-6.09199654 13.52004322 -10.05877999 13.54884148 -14.02685547 13.58056641 C-16.54313108 13.58217818 -19.05940924 13.58160135 -21.57568359 13.57861328 C-22.76428482 13.58984726 -23.95288605 13.60108124 -25.17750549 13.61265564 C-26.28222702 13.60327469 -27.38694855 13.59389374 -28.52514648 13.58422852 C-29.98145226 13.58397926 -29.98145226 13.58397926 -31.46717834 13.58372498 C-34.7791345 12.93866266 -35.97369364 11.69739508 -38.04052734 9.08251953 C-38.525028 6.24472995 -38.57142093 4.83412805 -36.89599609 2.4621582 C-34.23932403 0.4867827 -32.20560755 0.6483295 -28.91552734 0.57080078 C-27.66360596 0.5350293 -26.41168457 0.49925781 -25.12182617 0.46240234 C-23.76140731 0.43910405 -22.40097355 0.41666213 -21.04052734 0.39501953 C-19.65078107 0.36417673 -18.26105105 0.33259352 -16.87133789 0.30029297 C-13.29799807 0.2223247 -9.72463557 0.16579348 -6.15081787 0.11505127 C-4.1003521 0.08344178 -2.05024899 0.04330762 0 0 Z " fill="#F4F9FB" transform="translate(516.04052734375,594.91748046875)"/>
<path d="M0 0 C7.59 0 15.18 0 23 0 C23 7.59 23 15.18 23 23 C15.41 23 7.82 23 0 23 C0 15.41 0 7.82 0 0 Z " fill="#2B5A98" transform="translate(695,154)"/>
<path d="M0 0 C0.99 0.495 0.99 0.495 2 1 C1.26121661 2.1323975 0.50841355 3.2556547 -0.25 4.375 C-0.66765625 5.00148437 -1.0853125 5.62796875 -1.515625 6.2734375 C-3 8 -3 8 -4.890625 8.9140625 C-7.79169106 10.40757429 -9.39671234 12.52215427 -11.5 15 C-14.21731947 18.20122567 -16.22801996 20.2314257 -20 22 C-21.57907403 23.31035441 -23.11750165 24.67039648 -24.625 26.0625 C-25.49511719 26.8565625 -26.36523438 27.650625 -27.26171875 28.46875 C-29.10325101 30.17105086 -30.93911125 31.87950617 -32.76953125 33.59375 C-33.64996094 34.4084375 -34.53039062 35.223125 -35.4375 36.0625 C-36.24058594 36.81660156 -37.04367187 37.57070313 -37.87109375 38.34765625 C-40 40 -40 40 -43 40 C-43.26409668 40.58934326 -43.52819336 41.17868652 -43.80029297 41.78588867 C-45.04577052 44.08447149 -46.34552214 45.58939517 -48.1953125 47.42578125 C-48.8251001 48.05444092 -49.4548877 48.68310059 -50.10375977 49.33081055 C-50.77076904 49.98476807 -51.43777832 50.63872559 -52.125 51.3125 C-52.80425537 51.98385986 -53.48351074 52.65521973 -54.18334961 53.34692383 C-65.34922046 64.32297621 -65.34922046 64.32297621 -71.0625 67.9375 C-74.36929638 70.25929321 -76.54378643 72.88200661 -79.12109375 75.9609375 C-82.04763311 79.1369324 -85.44989436 81.56564185 -89 84 C-89.66 83.67 -90.32 83.34 -91 83 C-86.78379374 78.69595611 -82.57767877 74.42240621 -78 70.5 C-75.02859791 67.95308392 -72.2485599 65.28621141 -69.5 62.5 C-66.13548497 59.08939572 -62.65699183 55.91841115 -59.01953125 52.8046875 C-56.80995831 50.83017551 -54.75497051 48.74755409 -52.6875 46.625 C-48.56420815 42.43761553 -44.13837469 38.78667669 -39.5546875 35.1171875 C-37.39668409 33.32875042 -35.44097769 31.51527349 -33.5 29.5 C-29.88871031 25.75942787 -25.8806962 22.58609502 -21.8359375 19.328125 C-18.24227606 16.37795666 -14.80436974 13.27814018 -11.3671875 10.1484375 C-8.4447374 7.4960488 -5.47464885 4.90150564 -2.49609375 2.3125 C-1.64347059 1.56450684 -0.80201622 0.80201622 0 0 Z " fill="#375A8A" transform="translate(759,237)"/>
<path d="M0 0 C0.33 0 0.66 0 1 0 C1.2190511 11.76385541 0.55956187 23.29030056 -0.5 35 C-0.64516171 36.66140337 -0.78969599 38.32286168 -0.93359375 39.984375 C-1.28186865 43.9902505 -1.63849994 47.99529723 -2 52 C-2.33 52 -2.66 52 -3 52 C-4.82568562 42.87157189 -3.69212201 34.02074657 -2.7109375 24.86523438 C-2.13235093 19.20748426 -1.9074204 13.68785929 -2 8 C-3.12837409 9.58093054 -4.25256518 11.16484716 -5.375 12.75 C-6.00148438 13.63171875 -6.62796875 14.5134375 -7.2734375 15.421875 C-9.00750644 17.88378029 -9.00750644 17.88378029 -10.1015625 20.265625 C-11 22 -11 22 -13 23 C-14.03057459 24.76259832 -15.00160128 26.56035668 -15.9375 28.375 C-17.68278435 31.75844127 -19.21066529 34.41324267 -22 37 C-23.0064275 38.66279327 -24.00585407 40.32983484 -25 42 C-25.70125 42.86625 -26.4025 43.7325 -27.125 44.625 C-29.16710072 46.93522806 -29.16710072 46.93522806 -30 50 C-31 51 -32 52 -33 53 C-33.33 53.99 -33.66 54.98 -34 56 C-35.33333333 57.33333333 -36.66666667 58.66666667 -38 60 C-39.23512079 62.13309192 -39.23512079 62.13309192 -40 64 C-40.66 64 -41.32 64 -42 64 C-42.06574219 64.68578125 -42.13148438 65.3715625 -42.19921875 66.078125 C-43.25613425 69.93457765 -45.38372555 72.65756901 -47.8125 75.75 C-48.25142578 76.33910156 -48.69035156 76.92820312 -49.14257812 77.53515625 C-51.58790421 80.69627615 -53.06757943 82.30122748 -57 83 C-53.28637548 77.34555008 -49.44853023 71.82109065 -45.4375 66.375 C-39.34955681 58.02444973 -33.53299034 49.50021957 -27.75 40.9375 C-27.08138443 39.94781723 -27.08138443 39.94781723 -26.39926147 38.93814087 C-23.262956 34.29426176 -20.13122068 29.64730839 -17 25 C-14.1282075 20.73827498 -11.2538745 16.47830682 -8.37268066 12.22293091 C-7.26758046 10.58850128 -6.16647165 8.95137521 -5.06542969 7.31420898 C-4.40961914 6.34555908 -3.75380859 5.37690918 -3.078125 4.37890625 C-2.50481445 3.5288501 -1.93150391 2.67879395 -1.34082031 1.80297852 C-0.89834961 1.20799561 -0.45587891 0.6130127 0 0 Z " fill="#385C8A" transform="translate(717,317)"/>
<path d="M0 0 C0 5.97548433 -4.98610888 10.22164775 -8.9758606 14.25375366 C-9.60515472 14.87899933 -10.23444885 15.504245 -10.8828125 16.1484375 C-11.53829071 16.80582916 -12.19376892 17.46322083 -12.86911011 18.14053345 C-14.24670951 19.51948712 -15.62681089 20.89594535 -17.00927734 22.27001953 C-19.13225154 24.38221473 -21.24425969 26.5049584 -23.35546875 28.62890625 C-24.69727524 29.96939236 -26.03970135 31.3092586 -27.3828125 32.6484375 C-28.01615509 33.28582855 -28.64949768 33.9232196 -29.30203247 34.57992554 C-33.77004717 39 -33.77004717 39 -36 39 C-36.24024902 39.5662207 -36.48049805 40.13244141 -36.72802734 40.71582031 C-38.26195111 43.47040587 -40.10726018 45.33249671 -42.3515625 47.546875 C-43.20234375 48.39121094 -44.053125 49.23554688 -44.9296875 50.10546875 C-45.81914063 50.97816406 -46.70859375 51.85085938 -47.625 52.75 C-48.5221875 53.63816406 -49.419375 54.52632813 -50.34375 55.44140625 C-52.55807004 57.63216969 -54.77692435 59.81812763 -57 62 C-57.99 61.34 -58.98 60.68 -60 60 C-40.2 40.2 -20.4 20.4 0 0 Z " fill="#3C608F" transform="translate(638,349)"/>
<path d="M0 0 C9.57 0 19.14 0 29 0 C29 9.57 29 19.14 29 29 C19.43 29 9.86 29 0 29 C0 19.43 0 9.86 0 0 Z M4 1 C1.76586987 4.35119519 1.76152238 5.4177755 1.8046875 9.32421875 C1.81113281 10.35224609 1.81757812 11.38027344 1.82421875 12.43945312 C1.84097656 13.51130859 1.85773437 14.58316406 1.875 15.6875 C1.88402344 16.77095703 1.89304687 17.85441406 1.90234375 18.97070312 C1.9259266 21.6473571 1.95883874 24.32356797 2 27 C5.97915159 27.02886984 9.95827653 27.04675406 13.9375 27.0625 C15.64196289 27.07506836 15.64196289 27.07506836 17.38085938 27.08789062 C18.46044922 27.09111328 19.54003906 27.09433594 20.65234375 27.09765625 C21.65257568 27.10289307 22.65280762 27.10812988 23.68334961 27.11352539 C25.96207228 27.26181095 25.96207228 27.26181095 27 26 C27.08737645 24.14630389 27.10698153 22.28932459 27.09765625 20.43359375 C27.09282227 18.7465332 27.09282227 18.7465332 27.08789062 17.02539062 C27.07951172 15.84138672 27.07113281 14.65738281 27.0625 13.4375 C27.05798828 12.24962891 27.05347656 11.06175781 27.04882812 9.83789062 C27.03699675 6.89187774 27.02051287 3.94596319 27 1 C23.20847666 0.9132018 19.41720704 0.85967793 15.625 0.8125 C14.54476562 0.78736328 13.46453125 0.76222656 12.3515625 0.73632812 C11.3203125 0.72666016 10.2890625 0.71699219 9.2265625 0.70703125 C8.27346191 0.6913208 7.32036133 0.67561035 6.33837891 0.65942383 C5.18088135 0.82800903 5.18088135 0.82800903 4 1 Z " fill="#41628B" transform="translate(648,166)"/>
<path d="M0 0 C7.47465445 -0.10134735 14.949132 -0.1714435 22.42431641 -0.21972656 C24.96767803 -0.23985272 27.51099333 -0.26715637 30.05419922 -0.30175781 C33.70812404 -0.3502297 37.36143756 -0.37295916 41.015625 -0.390625 C42.72362274 -0.42159271 42.72362274 -0.42159271 44.46612549 -0.45318604 C46.05732208 -0.45363922 46.05732208 -0.45363922 47.68066406 -0.45410156 C48.61332092 -0.46298401 49.54597778 -0.47186646 50.50689697 -0.48101807 C53.76579949 0.14775298 54.95674432 1.4409367 57 4 C57.390625 6.359375 57.390625 6.359375 57.25 8.75 C57.21390625 9.54921875 57.1778125 10.3484375 57.140625 11.171875 C57.09421875 11.77515625 57.0478125 12.3784375 57 13 C55.02 13.99 55.02 13.99 53 15 C52.505 14.01 52.505 14.01 52 13 C52.515625 12.62875 53.03125 12.2575 53.5625 11.875 C55.34104523 9.97898518 55.34104523 9.97898518 54.8125 6.875 C54.544375 5.92625 54.27625 4.9775 54 4 C51.51320048 2.75660024 49.78202912 2.84172513 46.99951172 2.79467773 C45.95858368 2.77473251 44.91765564 2.75478729 43.84518433 2.73423767 C42.71807037 2.71752518 41.59095642 2.70081268 40.4296875 2.68359375 C39.27832306 2.66281265 38.12695862 2.64203156 36.94070435 2.62062073 C33.2521986 2.55508335 29.56361997 2.49622072 25.875 2.4375 C23.37889862 2.39431877 20.8828047 2.35070462 18.38671875 2.30664062 C12.25789019 2.19939769 6.12898867 2.09763911 0 2 C0 1.34 0 0.68 0 0 Z " fill="#3D5E88" transform="translate(512,543)"/>
<path d="M0 0 C2.57854305 2.56452923 5.13504634 5.14040847 7.65625 7.76171875 C18.25660178 18.731135 29.30457402 27.23073872 43 34 C40.37010044 35.01938767 39.33325763 35.14565852 36.703125 33.99609375 C35.48882812 33.22458984 35.48882812 33.22458984 34.25 32.4375 C33.37601562 31.88835937 32.50203125 31.33921875 31.6015625 30.7734375 C28.52451056 28.67586756 25.62733351 26.41341717 22.7890625 24.00390625 C20.43273676 22.68168853 19.53919638 23.32843648 17 24 C13.66778314 22.75145844 12.1656877 21.22928956 10.2734375 18.26171875 C9.7990625 17.52373047 9.3246875 16.78574219 8.8359375 16.02539062 C8.35382813 15.25388672 7.87171875 14.48238281 7.375 13.6875 C6.88515625 12.92759766 6.3953125 12.16769531 5.890625 11.38476562 C3.54308766 7.69348764 1.41437401 4.16824339 0 0 Z " fill="#375886" transform="translate(452,411)"/>
<path d="M0 0 C0.66 0.33 1.32 0.66 2 1 C-2.625 5 -2.625 5 -6 5 C-6.66 6.32 -7.32 7.64 -8 9 C-9.32 9 -10.64 9 -12 9 C-12 9.66 -12 10.32 -12 11 C-17.625 14 -17.625 14 -21 14 C-21.28875 14.5775 -21.5775 15.155 -21.875 15.75 C-22.6126883 17.2253766 -23.38282834 18.68506123 -24.1875 20.125 C-24.455625 20.74375 -24.72375 21.3625 -25 22 C-24.67 22.66 -24.34 23.32 -24 24 C-19.2102679 24.23428313 -19.2102679 24.23428313 -15 22 C-12.8125 22.375 -12.8125 22.375 -11 23 C-14.11258447 26.21299042 -16.29736646 27.30419139 -20.6875 27.375 C-24.69230769 27.30769231 -24.69230769 27.30769231 -27 25 C-27.98576833 20.15330571 -27.98576833 20.15330571 -27 17 C-24.1307188 13.96636857 -20.58942399 12.08580297 -17 10 C-15.53890689 9.10393503 -14.0793729 8.20532472 -12.62109375 7.3046875 C-11.08211094 6.3675188 -9.5417411 5.43262406 -8 4.5 C-7.245979 4.04189941 -6.49195801 3.58379883 -5.71508789 3.11181641 C-5.00473389 2.69335449 -4.29437988 2.27489258 -3.5625 1.84375 C-2.92441406 1.46412109 -2.28632812 1.08449219 -1.62890625 0.69335938 C-1.09136719 0.46455078 -0.55382812 0.23574219 0 0 Z " fill="#385B88" transform="translate(565,358)"/>
<path d="M0 0 C2.31 0 4.62 0 7 0 C6.0409375 0.6496875 6.0409375 0.6496875 5.0625 1.3125 C2.73253997 2.91239177 2.73253997 2.91239177 2 6 C1.8795998 8.87459111 1.81459902 11.72672723 1.79467773 14.60229492 C1.78477814 15.48055435 1.77487854 16.35881378 1.76467896 17.26368713 C1.73306881 20.1692535 1.70830839 23.07483622 1.68359375 25.98046875 C1.66302381 27.99400764 1.64202732 30.00754222 1.62062073 32.02107239 C1.56540423 37.32287097 1.51599305 42.62470849 1.46777344 47.92657471 C1.41755537 53.33585072 1.36187089 58.74507013 1.30664062 64.15429688 C1.1990642 74.7694829 1.09761804 85.38471806 1 96 C0.67 96 0.34 96 0 96 C0 64.32 0 32.64 0 0 Z " fill="#102351" transform="translate(306,235)"/>
<path d="M0 0 C7.59 0 15.18 0 23 0 C23 7.59 23 15.18 23 23 C15.41 23 7.82 23 0 23 C0.33 22.34 0.66 21.68 1 21 C7.27 20.67 13.54 20.34 20 20 C20.66 13.73 21.32 7.46 22 1 C14.74 1 7.48 1 0 1 C0 0.67 0 0.34 0 0 Z " fill="#5D7CA1" transform="translate(695,154)"/>
<path d="M0 0 C0.33 0 0.66 0 1 0 C1.2190511 11.76385541 0.55956187 23.29030056 -0.5 35 C-0.64516171 36.66140337 -0.78969599 38.32286168 -0.93359375 39.984375 C-1.28186865 43.9902505 -1.63849994 47.99529723 -2 52 C-2.33 52 -2.66 52 -3 52 C-4.61911581 43.90442096 -3.91602772 36.13069757 -3.0625 28 C-2.24830307 19.95633273 -1.64333674 11.93394675 -1.24609375 3.859375 C-1 1 -1 1 0 0 Z " fill="#49688F" transform="translate(717,317)"/>
<path d="M0 0 C0.66 0.33 1.32 0.66 2 1 C-9.63926581 12.19073919 -22.28263167 22.4413001 -36 31 C-36.66 30.34 -37.32 29.68 -38 29 C-37.01 28.67 -36.02 28.34 -35 28 C-34.67 27.34 -34.34 26.68 -34 26 C-33.01 26 -32.02 26 -31 26 C-31 25.34 -31 24.68 -31 24 C-30.01 24 -29.02 24 -28 24 C-28 23.34 -28 22.68 -28 22 C-27.360625 21.71125 -26.72125 21.4225 -26.0625 21.125 C-23.84793921 20.17176549 -23.84793921 20.17176549 -23 18 C-21.66666667 17.33333333 -20.33333333 16.66666667 -19 16 C-18.67 15.34 -18.34 14.68 -18 14 C-17.01 14 -16.02 14 -15 14 C-15 13.34 -15 12.68 -15 12 C-13.625 10.375 -13.625 10.375 -12 9 C-11.34 9 -10.68 9 -10 9 C-10 8.34 -10 7.68 -10 7 C-9.360625 6.896875 -8.72125 6.79375 -8.0625 6.6875 C-7.0415625 6.3471875 -7.0415625 6.3471875 -6 6 C-5.67 5.01 -5.34 4.02 -5 3 C-2.5625 1.25 -2.5625 1.25 0 0 Z " fill="#3C5F8B" transform="translate(613,577)"/>
<path d="M0 0 C0.66 0.33 1.32 0.66 2 1 C-2.20694787 8.71474681 -6.65310586 16.18763959 -11.625 23.4375 C-12.06755127 24.08654297 -12.51010254 24.73558594 -12.96606445 25.40429688 C-16.05067967 29.84423019 -19.41138568 33.95832508 -23 38 C-23 34.87099787 -22.57548683 33.62581138 -21 31 C-20.34 30.67 -19.68 30.34 -19 30 C-17.95191959 28.02477154 -16.9479589 26.02518491 -16 24 C-15.34 24 -14.68 24 -14 24 C-14 23.01 -14 22.02 -14 21 C-13.02246356 19.97803008 -12.0194119 18.98020375 -11 18 C-9.82425289 15.90010348 -9.82425289 15.90010348 -9 14 C-8.34 14 -7.68 14 -7 14 C-6.731875 12.865625 -6.46375 11.73125 -6.1875 10.5625 C-5.795625 9.386875 -5.40375 8.21125 -5 7 C-4.01 6.67 -3.02 6.34 -2 6 C-2 4.68 -2 3.36 -2 2 C-1.34 2 -0.68 2 0 2 C0 1.34 0 0.68 0 0 Z " fill="#3A5E8A" transform="translate(673,503)"/>
<path d="M0 0 C13.80642698 5.38044581 24.88094801 24.04957508 31.89453125 36.3125 C33 39 33 39 32 42 C31.59910156 41.27296875 31.19820312 40.5459375 30.78515625 39.796875 C23.42083305 26.77154144 14.50858494 14.13869047 2.9375 4.5 C1.968125 3.675 0.99875 2.85 0 2 C0 1.34 0 0.68 0 0 Z " fill="#3D5F89" transform="translate(599,261)"/>
<path d="M0 0 C1.9375 1.5 1.9375 1.5 3 3 C0.36749612 4.31625194 -0.80179056 3.74813658 -3.625 3.0625 C-4.85089844 2.77052734 -4.85089844 2.77052734 -6.1015625 2.47265625 C-7.04128906 2.23869141 -7.04128906 2.23869141 -8 2 C-8.50196294 5.28926495 -8.50196294 5.28926495 -8 9 C-4.72557169 12.43415652 -1.24747187 14.54783065 2.921875 16.8203125 C7.393226 19.35856062 11.6778838 22.21758885 16 25 C15.67 25.66 15.34 26.32 15 27 C11.41122891 24.7585858 7.8299965 22.50539779 4.25 20.25 C3.23421875 19.61578125 2.2184375 18.9815625 1.171875 18.328125 C0.1921875 17.709375 -0.7875 17.090625 -1.796875 16.453125 C-2.69760742 15.88754883 -3.59833984 15.32197266 -4.52636719 14.73925781 C-10.72363102 10.38184491 -10.72363102 10.38184491 -11.5 6.5 C-10.21591544 0.07957718 -5.93091193 -0.75484334 0 0 Z " fill="#416088" transform="translate(548,328)"/>
<path d="M0 0 C14.24896332 5.09609982 26.37760911 12.43553667 38 22 C37.01 22.33 36.02 22.66 35 23 C32.8125 21.6875 32.8125 21.6875 31 20 C31 19.34 31 18.68 31 18 C30.21625 17.690625 29.4325 17.38125 28.625 17.0625 C26 16 26 16 24 15 C24 14.34 24 13.68 24 13 C23.17242188 12.74476563 22.34484375 12.48953125 21.4921875 12.2265625 C17.56559849 10.84742497 13.87742537 9.16394698 10.125 7.375 C9.43664062 7.05015625 8.74828125 6.7253125 8.0390625 6.390625 C6.35794781 5.59676528 4.67877079 4.79880442 3 4 C3 3.34 3 2.68 3 2 C2.01 2 1.02 2 0 2 C0 1.34 0 0.68 0 0 Z " fill="#3C5E8A" transform="translate(561,238)"/>
<path d="M0 0 C0.33 0 0.66 0 1 0 C0.54852176 5.1325947 -0.11207356 10.05388043 -1.4765625 15.02734375 C-1.83074334 16.36212974 -2.13697809 17.710406 -2.3984375 19.06640625 C-3.4484652 24.28682698 -5.06371963 27.33834385 -9 31 C-11.8125 31.375 -11.8125 31.375 -14 31 C-12.625 29.5 -12.625 29.5 -11 28 C-10.34 28 -9.68 28 -9 28 C-6.56388516 23.30177852 -4.86012261 18.93661644 -4.0625 13.6875 C-3.23565424 8.80580263 -1.89556929 4.56659874 0 0 Z " fill="#3C608D" transform="translate(589,496)"/>
<path d="M0 0 C1.65 0 3.3 0 5 0 C5 0.66 5 1.32 5 2 C5.82757812 2.21269531 6.65515625 2.42539063 7.5078125 2.64453125 C11.90299067 4.35048967 15.17052833 6.81618365 18.875 9.6875 C19.93074219 10.4923584 19.93074219 10.4923584 21.0078125 11.31347656 C25.83728836 15.02278232 30.54764711 18.84056506 35 23 C34.34 23.66 33.68 24.32 33 25 C32.4121875 24.32517578 32.4121875 24.32517578 31.8125 23.63671875 C22.97915714 14.1370677 11.46356768 6.93649041 0 1 C0 0.67 0 0.34 0 0 Z " fill="#3B5D89" transform="translate(581,236)"/>
<path d="M0 0 C0.66 0 1.32 0 2 0 C1.42489888 4.49494668 0.25157409 8.09848445 -1.65234375 12.203125 C-2.18150391 13.3478125 -2.71066406 14.4925 -3.25585938 15.671875 C-3.81080078 16.85265625 -4.36574219 18.0334375 -4.9375 19.25 C-5.76411133 21.044375 -5.76411133 21.044375 -6.60742188 22.875 C-10.72888558 31.72888558 -10.72888558 31.72888558 -13 34 C-13 32.02 -13 30.04 -13 28 C-12.01 27.67 -11.02 27.34 -10 27 C-8.96961044 24.43957934 -8.96961044 24.43957934 -8.3125 21.4375 C-8.06113281 20.42558594 -7.80976562 19.41367187 -7.55078125 18.37109375 C-7.36902344 17.58863281 -7.18726563 16.80617188 -7 16 C-6.34 16 -5.68 16 -5 16 C-4.80664062 15.18015625 -4.61328125 14.3603125 -4.4140625 13.515625 C-4.15367187 12.43796875 -3.89328125 11.3603125 -3.625 10.25 C-3.36976563 9.18265625 -3.11453125 8.1153125 -2.8515625 7.015625 C-2.12466459 4.44147278 -1.2973776 2.32399814 0 0 Z " fill="#375B8A" transform="translate(689,467)"/>
<path d="M0 0 C0.33 0.99 0.66 1.98 1 3 C-1.7534688 5.77834378 -4.51033037 8.55327272 -7.27026367 11.32519531 C-8.66567283 12.72805627 -10.05844418 14.13353942 -11.45117188 15.5390625 C-12.78051758 16.87324219 -12.78051758 16.87324219 -14.13671875 18.234375 C-15.35427856 19.45979004 -15.35427856 19.45979004 -16.59643555 20.70996094 C-18.98671094 22.98733861 -21.27753029 25.12720408 -24 27 C-24.99 26.67 -25.98 26.34 -27 26 C-26.28714844 25.43152344 -25.57429687 24.86304688 -24.83984375 24.27734375 C-16.96852908 17.93155978 -10.05882685 11.36142532 -3.48046875 3.69921875 C-2.36828828 2.42270555 -1.19716986 1.19716986 0 0 Z " fill="#DFEDF4" transform="translate(638,330)"/>
<path d="M0 0 C0.33 0 0.66 0 1 0 C1 16.17 1 32.34 1 49 C0.34 49 -0.32 49 -1 49 C-2.125 47.25 -2.125 47.25 -3 45 C-2.34082188 43.66294861 -1.67323547 42.33002865 -1 41 C-0.6786595 38.94506338 -0.6786595 38.94506338 -0.68115234 36.78222656 C-0.66128265 35.96167786 -0.64141296 35.14112915 -0.62094116 34.29571533 C-0.60938995 33.41953552 -0.59783875 32.54335571 -0.5859375 31.640625 C-0.56657135 30.73624695 -0.5472052 29.8318689 -0.5272522 28.90008545 C-0.46756169 26.01681901 -0.42111314 23.13351242 -0.375 20.25 C-0.33681053 18.29295152 -0.29775823 16.33591967 -0.2578125 14.37890625 C-0.16186875 9.58607289 -0.07779873 4.79316085 0 0 Z " fill="#2C4F7D" transform="translate(618,215)"/>
<path d="M0 0 C0.33 0.99 0.66 1.98 1 3 C-15.09265405 18.58096394 -15.09265405 18.58096394 -23 22 C-25.30859375 21.66796875 -25.30859375 21.66796875 -27 21 C-26.03513672 20.55914062 -26.03513672 20.55914062 -25.05078125 20.109375 C-15.08454656 15.16180058 -7.75275689 7.83351478 0 0 Z " fill="#3E5F8B" transform="translate(563,424)"/>
<path d="M0 0 C0.33 0.66 0.66 1.32 1 2 C-0.1875 4.25 -0.1875 4.25 -2 7 C-2.64066406 7.97582031 -3.28132812 8.95164063 -3.94140625 9.95703125 C-6.90826661 14.34258005 -9.92421977 18.69016813 -13 23 C-13.33 21.68 -13.66 20.36 -14 19 C-13.34 19 -12.68 19 -12 19 C-12 18.01 -12 17.02 -12 16 C-11.54625 15.566875 -11.0925 15.13375 -10.625 14.6875 C-8.77320404 13.03448858 -8.77320404 13.03448858 -8.25 10.25 C-6.52412266 5.76271892 -3.51803684 3.17940228 0 0 Z " fill="#1D305A" transform="translate(754,244)"/>
<path d="M0 0 C0.66 0.33 1.32 0.66 2 1 C-0.78066099 12.85870127 -4.22440556 24.4215104 -8 36 C-8.86611464 32.85643117 -8.9991308 30.88265637 -8.25 27.6875 C-8.09015625 26.96949219 -7.9303125 26.25148438 -7.765625 25.51171875 C-7 23 -7 23 -5.55859375 19.734375 C-3.81945572 15.78212785 -2.7985944 11.75627889 -1.8125 7.5625 C-1.63525391 6.83095703 -1.45800781 6.09941406 -1.27539062 5.34570312 C-0.84479109 3.56511585 -0.42160784 1.78273774 0 0 Z " fill="#375A87" transform="translate(701,429)"/>
<path d="M0 0 C0.66 0.33 1.32 0.66 2 1 C-2.625 5 -2.625 5 -6 5 C-6.66 6.32 -7.32 7.64 -8 9 C-9.32 9 -10.64 9 -12 9 C-12 9.66 -12 10.32 -12 11 C-17.45769231 14.10096154 -17.45769231 14.10096154 -20.203125 13.58984375 C-20.79609375 13.39519531 -21.3890625 13.20054687 -22 13 C-18.38273023 10.79951644 -14.755026 8.61686505 -11.125 6.4375 C-10.09246094 5.80908203 -9.05992187 5.18066406 -7.99609375 4.53320312 C-7.00996094 3.94345703 -6.02382813 3.35371094 -5.0078125 2.74609375 C-3.64100342 1.92129517 -3.64100342 1.92129517 -2.24658203 1.07983398 C-1.50520996 0.72348877 -0.76383789 0.36714355 0 0 Z " fill="#3C5F8E" transform="translate(565,358)"/>
<path d="M0 0 C0.66 0.33 1.32 0.66 2 1 C0.7144018 10.10506018 -0.98294223 19.03081643 -3 28 C-5.02668199 25.16849845 -4.98728511 23.89116518 -4.57421875 20.35546875 C-4.29208705 18.96335409 -3.99603814 17.57400126 -3.6875 16.1875 C-3.3982894 14.80629244 -3.11051705 13.42478291 -2.82421875 12.04296875 C-2.68161621 11.37185059 -2.53901367 10.70073242 -2.39208984 10.00927734 C-2.00702966 8.03602374 -1.73087036 6.0425175 -1.45703125 4.05078125 C-1 1 -1 1 0 0 Z " fill="#3D618F" transform="translate(708,397)"/>
<path d="M0 0 C0.33 0.99 0.66 1.98 1 3 C-1.08119446 4.93984166 -3.16484547 6.87692294 -5.25 8.8125 C-6.12978516 9.63331055 -6.12978516 9.63331055 -7.02734375 10.47070312 C-9.91536679 13.14780313 -12.77521291 15.72508832 -16 18 C-16.66 17.67 -17.32 17.34 -18 17 C-15.75417636 14.72500399 -13.50262096 12.45576416 -11.25 10.1875 C-10.61578125 9.54490234 -9.9815625 8.90230469 -9.328125 8.24023438 C-8.4 7.30727539 -8.4 7.30727539 -7.453125 6.35546875 C-6.88754883 5.78465576 -6.32197266 5.21384277 -5.73925781 4.62573242 C-3.92139169 2.92652264 -2.01504683 1.45724172 0 0 Z " fill="#1D2E57" transform="translate(429,258)"/>
<path d="M0 0 C-3.6008061 2.31776537 -7.20619672 4.62829896 -10.8125 6.9375 C-11.83666016 7.59685547 -12.86082031 8.25621094 -13.91601562 8.93554688 C-15.39038086 9.87817383 -15.39038086 9.87817383 -16.89453125 10.83984375 C-17.80050049 11.42113037 -18.70646973 12.00241699 -19.63989258 12.60131836 C-22 14 -22 14 -25 15 C-25 14.01 -25 13.02 -25 12 C-23.68 12 -22.36 12 -21 12 C-20.814375 11.401875 -20.62875 10.80375 -20.4375 10.1875 C-17.88752543 6.30710391 -13.36144464 5.47354596 -9.125 4 C-8.42375 3.67 -7.7225 3.34 -7 3 C-6.67 2.01 -6.34 1.02 -6 0 C-3.42525708 -0.99667468 -2.51072708 -1.25536354 0 0 Z " fill="#385B86" transform="translate(580,365)"/>
<path d="M0 0 C0.99 0 1.98 0 3 0 C3 0.66 3 1.32 3 2 C3.99 2.33 4.98 2.66 6 3 C6 4.32 6 5.64 6 7 C6.66 7 7.32 7 8 7 C9.36645701 9.59836136 10.71830669 12.20265556 12.0625 14.8125 C12.45244141 15.55048828 12.84238281 16.28847656 13.24414062 17.04882812 C13.60830078 17.76103516 13.97246094 18.47324219 14.34765625 19.20703125 C14.68804932 19.8616333 15.02844238 20.51623535 15.37915039 21.19067383 C16 23 16 23 15 26 C14.12988281 24.31583984 14.12988281 24.31583984 13.2421875 22.59765625 C9.18628317 14.80666831 5.17592269 7.12450535 0 0 Z " fill="#3D608C" transform="translate(587,297)"/>
<path d="M0 0 C0.66 0.33 1.32 0.66 2 1 C1.26121661 2.1323975 0.50841355 3.2556547 -0.25 4.375 C-0.87648438 5.31472656 -0.87648438 5.31472656 -1.515625 6.2734375 C-3 8 -3 8 -4.94140625 8.96875 C-7.52603976 10.26351897 -8.85378769 11.90545234 -10.6875 14.125 C-11.773528 15.43195447 -12.87307401 16.72814127 -14 18 C-14.33 18 -14.66 18 -15 18 C-15.328125 15.78515625 -15.328125 15.78515625 -15 13 C-12.734375 10.68359375 -12.734375 10.68359375 -9.75 8.4375 C-6.26988137 5.78137771 -3.02225626 3.17336908 0 0 Z " fill="#3B5581" transform="translate(759,237)"/>
<path d="M0 0 C0 3.80747909 -1.19755823 4.97134634 -3.4375 8 C-5.46087136 10.74687991 -6.91763339 12.75290018 -8 16 C-8.66 16 -9.32 16 -10 16 C-10.28875 16.598125 -10.5775 17.19625 -10.875 17.8125 C-12 20 -12 20 -14 23 C-14.66 23 -15.32 23 -16 23 C-14.59195334 19.99811392 -12.94319563 17.38827168 -10.99609375 14.70703125 C-10.42052734 13.91232422 -9.84496094 13.11761719 -9.25195312 12.29882812 C-8.35379883 11.0680957 -8.35379883 11.0680957 -7.4375 9.8125 C-6.83486328 8.98041016 -6.23222656 8.14832031 -5.61132812 7.29101562 C-1.15715681 1.15715681 -1.15715681 1.15715681 0 0 Z " fill="#385A86" transform="translate(647,417)"/>
<path d="M0 0 C0.99 0 1.98 0 3 0 C1.45212498 3.83450856 -0.93722746 6.02555699 -4 8.75 C-4.886875 9.54921875 -5.77375 10.3484375 -6.6875 11.171875 C-9 13 -9 13 -11 13 C-11 11.35 -11 9.7 -11 8 C-9.68 8 -8.36 8 -7 8 C-4.32651508 5.15848783 -4.32651508 5.15848783 -2 2 C-1.34 1.34 -0.68 0.68 0 0 Z " fill="#3E5A83" transform="translate(622,343)"/>
<path d="M0 0 C0.33 0 0.66 0 1 0 C1.36564371 5.48465569 1.36564371 5.48465569 -0.19262695 7.6809082 C-2.61065643 9.44568103 -4.13129834 9.34454396 -7.10546875 9.29296875 C-8.08837891 9.28330078 -9.07128906 9.27363281 -10.08398438 9.26367188 C-11.10814453 9.23853516 -12.13230469 9.21339844 -13.1875 9.1875 C-14.22326172 9.17396484 -15.25902344 9.16042969 -16.32617188 9.14648438 C-18.88463699 9.11111389 -21.4420578 9.06175544 -24 9 C-24 8.67 -24 8.34 -24 8 C-22.74703125 7.95101562 -21.4940625 7.90203125 -20.203125 7.8515625 C-18.55206179 7.77651417 -16.90102119 7.70096723 -15.25 7.625 C-14.425 7.5940625 -13.6 7.563125 -12.75 7.53125 C-11.95078125 7.49257813 -11.1515625 7.45390625 -10.328125 7.4140625 C-9.22839355 7.36693115 -9.22839355 7.36693115 -8.10644531 7.31884766 C-5.69582772 6.95395816 -4.06110241 6.29779301 -2 5 C-0.71745356 2.46229997 -0.71745356 2.46229997 0 0 Z " fill="#37486B" transform="translate(492,509)"/>
<path d="M0 0 C1.44349674 0.73839246 2.87959051 1.49126643 4.3125 2.25 C5.11300781 2.66765625 5.91351562 3.0853125 6.73828125 3.515625 C9.17592395 5.11545958 10.48834658 6.51896883 12 9 C12.375 12.0625 12.375 12.0625 12 15 C10.4765625 16.68359375 10.4765625 16.68359375 9 18 C9.01160156 17.38511719 9.02320313 16.77023437 9.03515625 16.13671875 C9.04417969 15.32847656 9.05320312 14.52023437 9.0625 13.6875 C9.07410156 12.88699219 9.08570313 12.08648437 9.09765625 11.26171875 C9.09657855 8.83138666 9.09657855 8.83138666 8 6 C5.60931266 4.89363605 5.60931266 4.89363605 3 4 C2.01 3.34 1.02 2.68 0 2 C0 1.34 0 0.68 0 0 Z " fill="#46668D" transform="translate(573,345)"/>
<path d="M0 0 C2.31 0 4.62 0 7 0 C6.0409375 0.6496875 6.0409375 0.6496875 5.0625 1.3125 C2.73253997 2.91239177 2.73253997 2.91239177 2 6 C1.8535286 7.55266653 1.75305926 9.10995662 1.68359375 10.66796875 C1.64169922 11.56064453 1.59980469 12.45332031 1.55664062 13.37304688 C1.51732422 14.30181641 1.47800781 15.23058594 1.4375 16.1875 C1.39431641 17.12787109 1.35113281 18.06824219 1.30664062 19.03710938 C1.20061335 21.35792854 1.09854971 23.67885325 1 26 C0.67 26 0.34 26 0 26 C0 17.42 0 8.84 0 0 Z " fill="#0C1D47" transform="translate(306,235)"/>
<path d="M0 0 C1.32 0 2.64 0 4 0 C4 0.66 4 1.32 4 2 C4.9590625 1.87625 4.9590625 1.87625 5.9375 1.75 C10.40292757 2.1145247 14.00911228 4.05237724 18 6 C18 6.66 18 7.32 18 8 C11.33333333 6 4.66666667 4 -2 2 C-1.34 1.34 -0.68 0.68 0 0 Z " fill="#456691" transform="translate(552,223)"/>
<path d="M0 0 C3 1 3 1 4.5625 3.9375 C6.88012493 9.87258182 8.56024407 15.75902374 7 22 C4.69 14.74 2.38 7.48 0 0 Z " fill="#385A89" transform="translate(603,324)"/>
<path d="M0 0 C-3.28515921 3.28515921 -6.86786706 3.93552774 -11.4296875 4.1953125 C-12.56664062 4.17210937 -13.70359375 4.14890625 -14.875 4.125 C-16.02742187 4.10695313 -17.17984375 4.08890625 -18.3671875 4.0703125 C-19.23601563 4.04710937 -20.10484375 4.02390625 -21 4 C-17.46272361 1.96983385 -13.90785577 1.16836008 -9.9375 0.3125 C-8.70902344 0.04050781 -7.48054687 -0.23148438 -6.21484375 -0.51171875 C-3 -1 -3 -1 0 0 Z " fill="#365A89" transform="translate(573,529)"/>
<path d="M0 0 C0.66 0 1.32 0 2 0 C0.59003728 4.48624503 -1.34186843 7.04236171 -5 10 C-7.94200543 11.23899893 -10.91849425 12.17423702 -14 13 C-14 12.34 -14 11.68 -14 11 C-12.80375 10.67 -11.6075 10.34 -10.375 10 C-5.78194259 8.33053764 -3.82244182 5.6688693 -1.2265625 1.64453125 C-0.82179688 1.10183594 -0.41703125 0.55914063 0 0 Z " fill="#E2F2F9" transform="translate(582,516)"/>
<path d="M0 0 C0 3 0 3 -1.35546875 4.6484375 C-1.96003906 5.21820313 -2.56460938 5.78796875 -3.1875 6.375 C-3.82558594 6.98601562 -4.46367188 7.59703125 -5.12109375 8.2265625 C-5.74113281 8.81179688 -6.36117187 9.39703125 -7 10 C-7.9075 10.9075 -8.815 11.815 -9.75 12.75 C-11.5 14.5 -13.25 16.25 -15 18 C-15.66 17.67 -16.32 17.34 -17 17 C-11.39 11.39 -5.78 5.78 0 0 Z " fill="#325381" transform="translate(667,321)"/>
<path d="M0 0 C0 3.23830467 -0.29194726 4.31591712 -2 7 C-4.94562264 9.71307348 -7.1120159 11.18104165 -11 12 C-7.49102731 7.81576108 -3.91939465 3.80411834 0 0 Z " fill="#3F628E" transform="translate(577,410)"/>
<path d="M0 0 C0.99 0.33 1.98 0.66 3 1 C1.89966185 2.60679516 0.79457336 4.21033793 -0.3125 5.8125 C-0.92738281 6.70582031 -1.54226563 7.59914063 -2.17578125 8.51953125 C-3.67715037 10.56100746 -5.14785401 12.28462787 -7 14 C-7.66 13.67 -8.32 13.34 -9 13 C-6.03 8.71 -3.06 4.42 0 0 Z " fill="#436591" transform="translate(700,342)"/>
<path d="M0 0 C0.99 0.66 1.98 1.32 3 2 C1.75803878 3.15454162 0.50607155 4.29832562 -0.75 5.4375 C-1.79414062 6.39462891 -1.79414062 6.39462891 -2.859375 7.37109375 C-4.98792725 8.99081325 -6.39023405 9.58267256 -9 10 C-8.06409496 8.8944811 -7.12620142 7.79064547 -6.1875 6.6875 C-5.66542969 6.07261719 -5.14335938 5.45773437 -4.60546875 4.82421875 C-3.12827531 3.14575321 -1.59960869 1.56117966 0 0 Z " fill="#3E6291" transform="translate(677,311)"/>
<path d="M0 0 C0.99 0.33 1.98 0.66 3 1 C-0.3 4.96 -3.6 8.92 -7 13 C-7.66 12.67 -8.32 12.34 -9 12 C-9 11.34 -9 10.68 -9 10 C-8.01 10 -7.02 10 -6 10 C-5.87625 9.401875 -5.7525 8.80375 -5.625 8.1875 C-5 6 -5 6 -3 3 C-2.01 3 -1.02 3 0 3 C0 2.01 0 1.02 0 0 Z " fill="#3C5F8E" transform="translate(645,543)"/>
<path d="M0 0 C3.6930085 1.62668231 6.61629195 3.91312407 9.75 6.4375 C10.73484375 7.21996094 11.7196875 8.00242188 12.734375 8.80859375 C13.85585938 9.89333984 13.85585938 9.89333984 15 11 C15 11.99 15 12.98 15 14 C14.01 13.13375 13.02 12.2675 12 11.375 C8.63858419 8.47414628 5.12997225 5.856451 1.50390625 3.296875 C1.00761719 2.86890625 0.51132812 2.4409375 0 2 C0 1.34 0 0.68 0 0 Z " fill="#46668F" transform="translate(600,247)"/>
<path d="M0 0 C0.66 0.33 1.32 0.66 2 1 C0.76600937 2.36877116 -0.48780623 3.71969166 -1.75 5.0625 C-2.79414062 6.19365234 -2.79414062 6.19365234 -3.859375 7.34765625 C-6 9 -6 9 -8.265625 8.74609375 C-8.83796875 8.49988281 -9.4103125 8.25367188 -10 8 C-8.90220176 6.84806377 -7.79650554 5.70365063 -6.6875 4.5625 C-6.07261719 3.92441406 -5.45773437 3.28632813 -4.82421875 2.62890625 C-3 1 -3 1 0 0 Z " fill="#426695" transform="translate(622,367)"/>
<path d="M0 0 C2.8202907 4.00438221 2.00863471 8.12336539 1.625 12.75 C1.56828125 13.54277344 1.5115625 14.33554687 1.453125 15.15234375 C1.31216305 17.10231735 1.1574288 19.05128671 1 21 C0.67 21 0.34 21 0 21 C-1.43791484 13.81042579 -1.1936095 7.16165702 0 0 Z " fill="#406493" transform="translate(714,348)"/>
<path d="M0 0 C-1.90881434 1.03544174 -3.82739204 2.05290085 -5.75 3.0625 C-6.81734375 3.63097656 -7.8846875 4.19945312 -8.984375 4.78515625 C-12.02593537 6.01044806 -13.04893565 6.25348607 -16 5 C-15.34 5 -14.68 5 -14 5 C-14 3.35 -14 1.7 -14 0 C-13.67 0.99 -13.34 1.98 -13 3 C-11.68 3 -10.36 3 -9 3 C-9 2.34 -9 1.68 -9 1 C-3.375 -1.125 -3.375 -1.125 0 0 Z " fill="#3D5C89" transform="translate(526,639)"/>
<path d="M0 0 C0.66 0.66 1.32 1.32 2 2 C-2.29 6.29 -6.58 10.58 -11 15 C-11.66 14.67 -12.32 14.34 -13 14 C-12.39671875 13.40832031 -11.7934375 12.81664062 -11.171875 12.20703125 C-5.26989543 6.38766162 -5.26989543 6.38766162 0 0 Z " fill="#E3F2FA" transform="translate(644,548)"/>
<path d="M0 0 C0.66 0 1.32 0 2 0 C0.37815499 3.58513106 -1.79256239 6.58992323 -4.125 9.75 C-4.84945312 10.73484375 -5.57390625 11.7196875 -6.3203125 12.734375 C-6.87460937 13.48203125 -7.42890625 14.2296875 -8 15 C-8.33 14.01 -8.66 13.02 -9 12 C-8.34 11.01 -7.68 10.02 -7 9 C-6.34 9 -5.68 9 -5 9 C-4.814375 8.1028125 -4.814375 8.1028125 -4.625 7.1875 C-4 5 -4 5 -2 2 C-1.34 2 -0.68 2 0 2 C0 1.34 0 0.68 0 0 Z " fill="#DEEEF8" transform="translate(666,388)"/>
<path d="M0 0 C1.89692143 0.45380895 3.79249595 0.91324992 5.6875 1.375 C6.74324219 1.63023437 7.79898438 1.88546875 8.88671875 2.1484375 C11.70406766 2.91905489 14.31668325 3.85498543 17 5 C17 5.66 17 6.32 17 7 C11.21113776 5.63172347 5.61854082 3.95088223 0 2 C0 1.34 0 0.68 0 0 Z " fill="#3D618E" transform="translate(596,208)"/>
<path d="M0 0 C2.94619748 0.32735528 5.35360372 0.62467313 7.9375 2.125 C9.64468809 5.13768486 8.67845209 7.7310945 8 11 C5.4345406 8.4345406 5.45953913 6.52313332 5 3 C2.03 2.505 2.03 2.505 -1 2 C-0.67 1.34 -0.34 0.68 0 0 Z " fill="#2F4164" transform="translate(523,312)"/>
<path d="M0 0 C3.24271506 0.5590888 4.93057424 1.4132178 7 4 C7 4.66 7 5.32 7 6 C7.66 6 8.32 6 9 6 C9 6.99 9 7.98 9 9 C9.66 9 10.32 9 11 9 C11.33 10.65 11.66 12.3 12 14 C2.38461538 4.76923077 2.38461538 4.76923077 0 0 Z " fill="#DCEDF7" transform="translate(609,269)"/>
<path d="M0 0 C-1.78881736 1.00508801 -3.58114696 2.00392736 -5.375 3 C-6.37273438 3.556875 -7.37046875 4.11375 -8.3984375 4.6875 C-11 6 -11 6 -13 6 C-12.67 5.01 -12.34 4.02 -12 3 C-11.01 3 -10.02 3 -9 3 C-9 2.34 -9 1.68 -9 1 C-5.47051709 -0.66670026 -3.71727674 -1.13583456 0 0 Z " fill="#385B8A" transform="translate(546,628)"/>
<path d="M0 0 C0 4.27840261 -2.28404432 5.82034457 -5 9 C-5.33 9.99 -5.66 10.98 -6 12 C-8.0625 13.6875 -8.0625 13.6875 -10 15 C-9.36929138 11.29350686 -7.72331344 8.85381122 -5.5625 5.8125 C-4.94503906 4.93207031 -4.32757812 4.05164063 -3.69140625 3.14453125 C-2 1 -2 1 0 0 Z " fill="#345887" transform="translate(693,355)"/>
<path d="M0 0 C3 1 3 1 4 3 C4.06950541 4.54023996 4.08452357 6.08334988 4.0625 7.625 C4.05347656 8.44226563 4.04445313 9.25953125 4.03515625 10.1015625 C4.02355469 10.72804688 4.01195312 11.35453125 4 12 C2.02 12.99 2.02 12.99 0 14 C-0.33 13.34 -0.66 12.68 -1 12 C-0.484375 11.62875 0.03125 11.2575 0.5625 10.875 C2.33519854 8.98720771 2.33519854 8.98720771 1.8125 5.9375 C1.23351637 2.90484132 1.23351637 2.90484132 -1 1 C-0.67 0.67 -0.34 0.34 0 0 Z " fill="#395D8E" transform="translate(565,544)"/>
<path d="M0 0 C1.32 0.33 2.64 0.66 4 1 C0.7 4.3 -2.6 7.6 -6 11 C-6.33 10.01 -6.66 9.02 -7 8 C-6.34 8 -5.68 8 -5 8 C-5 7.34 -5 6.68 -5 6 C-4.34 6 -3.68 6 -3 6 C-2.690625 5.38125 -2.38125 4.7625 -2.0625 4.125 C-1.375 2.75 -0.6875 1.375 0 0 Z " fill="#D7E8F4" transform="translate(685,300)"/>
<path d="M0 0 C5.44876003 1.72066106 10.71169451 3.84705349 16 6 C15.01 6.66 14.02 7.32 13 8 C10.51625027 7.10959915 8.3357208 6.18264344 6 5 C4.865625 4.443125 3.73125 3.88625 2.5625 3.3125 C1.716875 2.879375 0.87125 2.44625 0 2 C0 1.34 0 0.68 0 0 Z " fill="#3E618D" transform="translate(551,191)"/>
<path d="M0 0 C0.66 0 1.32 0 2 0 C1.39644592 3.85025879 0.23227397 6.86101159 -1.5625 10.3125 C-2.01753906 11.19550781 -2.47257813 12.07851563 -2.94140625 12.98828125 C-3.29074219 13.65214844 -3.64007812 14.31601562 -4 15 C-4.33 15 -4.66 15 -5 15 C-5 13.02 -5 11.04 -5 9 C-4.01 8.67 -3.02 8.34 -2 8 C-1.19787372 6.12612784 -1.19787372 6.12612784 -0.8125 3.9375 C-0.65394531 3.20402344 -0.49539063 2.47054688 -0.33203125 1.71484375 C-0.22246094 1.14894531 -0.11289062 0.58304687 0 0 Z " fill="#42638E" transform="translate(681,486)"/>
<path d="M0 0 C0.99 0.33 1.98 0.66 3 1 C0.69716746 3.54131358 -1.67313793 5.07110295 -4.6875 6.6875 C-5.89986328 7.34298828 -5.89986328 7.34298828 -7.13671875 8.01171875 C-7.75160156 8.33785156 -8.36648438 8.66398438 -9 9 C-9 8.34 -9 7.68 -9 7 C-8.34 7 -7.68 7 -7 7 C-6.67 6.01 -6.34 5.02 -6 4 C-4.35 3.67 -2.7 3.34 -1 3 C-0.67 2.01 -0.34 1.02 0 0 Z " fill="#40618E" transform="translate(561,615)"/>
<path d="M0 0 C0.99 0 1.98 0 3 0 C1.46356148 3.68069887 -0.78150945 5.98775204 -3.625 8.75 C-4.85089844 9.94882812 -4.85089844 9.94882812 -6.1015625 11.171875 C-6.72804688 11.77515625 -7.35453125 12.3784375 -8 13 C-8 10 -8 10 -6.50390625 8.28125 C-5.86324219 7.6934375 -5.22257813 7.105625 -4.5625 6.5 C-2.07860209 4.21180313 -1.09119869 3.27359608 0 0 Z " fill="#365885" transform="translate(632,557)"/>
<path d="M0 0 C0.66 0.33 1.32 0.66 2 1 C-0.31 5.29 -2.62 9.58 -5 14 C-6.12837492 9.48650033 -5.87706931 9.07631749 -3.625 5.3125 C-3.16351562 4.52488281 -2.70203125 3.73726563 -2.2265625 2.92578125 C-1 1 -1 1 0 0 Z " fill="#DEEDF6" transform="translate(597,479)"/>
<path d="M0 0 C0.33 0 0.66 0 1 0 C1.36795695 3.2828659 1.3231932 4.58663012 -0.75 7.23828125 C-1.4925 7.92277344 -2.235 8.60726563 -3 9.3125 C-3.7425 10.00988281 -4.485 10.70726562 -5.25 11.42578125 C-5.8275 11.94527344 -6.405 12.46476562 -7 13 C-7.33 12.34 -7.66 11.68 -8 11 C-7.67 10.34 -7.34 9.68 -7 9 C-6.34 9 -5.68 9 -5 9 C-4.34 7.68 -3.68 6.36 -3 5 C-2.34 5 -1.68 5 -1 5 C-0.67 3.35 -0.34 1.7 0 0 Z " fill="#3B5D8B" transform="translate(641,322)"/>
<path d="M0 0 C0.66 0.33 1.32 0.66 2 1 C1.3503125 1.5878125 1.3503125 1.5878125 0.6875 2.1875 C-1.13512023 3.99104472 -1.13512023 3.99104472 -2.375 6.5625 C-4.29492093 9.44238139 -5.73894457 10.03049703 -9 11 C-8.06558465 9.72689688 -7.12732889 8.456612 -6.1875 7.1875 C-5.66542969 6.47980469 -5.14335938 5.77210938 -4.60546875 5.04296875 C-3.16871123 3.21468607 -1.68184237 1.60103312 0 0 Z " fill="#3E5E8B" transform="translate(623,449)"/>
<path d="M0 0 C0.66 0.33 1.32 0.66 2 1 C-1.63 4.3 -5.26 7.6 -9 11 C-9.66 10.34 -10.32 9.68 -11 9 C-9.93458984 8.15115234 -9.93458984 8.15115234 -8.84765625 7.28515625 C-7.92855469 6.55167969 -7.00945313 5.81820312 -6.0625 5.0625 C-5.14597656 4.33160156 -4.22945312 3.60070312 -3.28515625 2.84765625 C-1.59148731 1.48061289 -1.59148731 1.48061289 0 0 Z " fill="#DFF0F9" transform="translate(601,589)"/>
<path d="M0 0 C3.63559661 3.43361902 6.36113346 6.7973607 9 11 C8.67 11.66 8.34 12.32 8 13 C6.66094733 11.2126038 5.32890934 9.41995047 4 7.625 C3.2575 6.62726563 2.515 5.62953125 1.75 4.6015625 C0 2 0 2 0 0 Z " fill="#46566E" transform="translate(452,411)"/>
<path d="M0 0 C1.65 0 3.3 0 5 0 C1.53258866 2.95749791 -1.86873527 5.07848152 -6 7 C-6 6.01 -6 5.02 -6 4 C-4.68 4 -3.36 4 -2 4 C-1.34 2.68 -0.68 1.36 0 0 Z " fill="#42638F" transform="translate(561,373)"/>
<path d="M0 0 C9.59453303 5.0022779 9.59453303 5.0022779 13 9 C8.33138019 7.39516194 3.90741833 5.02509806 0 2 C0 1.34 0 0.68 0 0 Z " fill="#3E5F8A" transform="translate(551,331)"/>
<path d="M0 0 C0.66 0.33 1.32 0.66 2 1 C-2.81776765 8.66742597 -2.81776765 8.66742597 -8 10 C-6.34908222 5.70761377 -3.26245434 3.1206085 0 0 Z " fill="#455770" transform="translate(759,237)"/>
<path d="M0 0 C1.27310312 0.93441535 2.543388 1.87267111 3.8125 2.8125 C4.52019531 3.33457031 5.22789062 3.85664062 5.95703125 4.39453125 C7.78531393 5.83128877 9.39896688 7.31815763 11 9 C10.67 9.66 10.34 10.32 10 11 C8.32742645 9.5484451 6.66208242 8.08855591 5 6.625 C3.6078125 5.40683594 3.6078125 5.40683594 2.1875 4.1640625 C1.465625 3.44992187 0.74375 2.73578125 0 2 C0 1.34 0 0.68 0 0 Z " fill="#253459" transform="translate(409,577)"/>
<path d="M0 0 C1.62542193 0.64477069 3.25032424 1.29085143 4.875 1.9375 C5.77992188 2.29714844 6.68484375 2.65679687 7.6171875 3.02734375 C10 4 10 4 12 5 C12 5.66 12 6.32 12 7 C8.1286412 6.46231128 6.02815875 5.422527 3 3 C2.01 2.67 1.02 2.34 0 2 C0 1.34 0 0.68 0 0 Z " fill="#DAEDF7" transform="translate(546,268)"/>
<path d="M0 0 C0.66 0 1.32 0 2 0 C1.54857225 1.77260631 1.08859477 3.5430368 0.625 5.3125 C0.24214844 6.79169922 0.24214844 6.79169922 -0.1484375 8.30078125 C-1 11 -1 11 -3 14 C-2.40380045 9.13103697 -1.43023178 4.67209049 0 0 Z " fill="#40618D" transform="translate(695,451)"/>
<path d="M0 0 C-1.5625 1.5625 -1.5625 1.5625 -4 3 C-7.75 2.6875 -7.75 2.6875 -11 2 C-11 1.34 -11 0.68 -11 0 C-9.54263913 -0.19491452 -8.08405407 -0.38069358 -6.625 -0.5625 C-5.81289063 -0.66691406 -5.00078125 -0.77132813 -4.1640625 -0.87890625 C-2 -1 -2 -1 0 0 Z " fill="#D6E5F0" transform="translate(551,385)"/>
<path d="M0 0 C-1.52708963 3.43595166 -3.59927045 6.11912454 -6 9 C-6.25 6.1875 -6.25 6.1875 -6 3 C-3.95959224 0.95959224 -2.91674756 0 0 0 Z " fill="#2F5485" transform="translate(544,372)"/>
<path d="M0 0 C0.59296875 0.22558594 1.1859375 0.45117188 1.796875 0.68359375 C-0.56908433 3.29860143 -3.06361726 5.07358978 -6.203125 6.68359375 C-6.863125 6.35359375 -7.523125 6.02359375 -8.203125 5.68359375 C-7.30284912 4.64827649 -6.38219465 3.6306521 -5.453125 2.62109375 C-4.68742188 1.76837891 -4.68742188 1.76837891 -3.90625 0.8984375 C-2.203125 -0.31640625 -2.203125 -0.31640625 0 0 Z " fill="#486995" transform="translate(647.203125,342.31640625)"/>
<path d="M0 0 C3.5625 0.3125 3.5625 0.3125 5.5 1.8125 C5.850625 2.3075 6.20125 2.8025 6.5625 3.3125 C3.8405754 4.6734623 2.3793043 4.01616248 -0.5625 3.375 C-1.47257813 3.18035156 -2.38265625 2.98570312 -3.3203125 2.78515625 C-4.01898437 2.62917969 -4.71765625 2.47320312 -5.4375 2.3125 C-3.4375 0.3125 -3.4375 0.3125 0 0 Z " fill="#44648E" transform="translate(544.4375,327.6875)"/>
<path d="M0 0 C1 2 1 2 0.546875 3.91015625 C0.28390625 4.62042969 0.0209375 5.33070313 -0.25 6.0625 C-0.62898438 7.13177734 -0.62898438 7.13177734 -1.015625 8.22265625 C-2 10 -2 10 -5 11 C-3.77472971 6.94718288 -2.30119506 3.55639236 0 0 Z " fill="#172950" transform="translate(397,296)"/>
<path d="M0 0 C0.33 1.32 0.66 2.64 1 4 C-1.4375 6.75 -1.4375 6.75 -4 9 C-4.66 8.67 -5.32 8.34 -6 8 C-4.02 5.36 -2.04 2.72 0 0 Z " fill="#3F608D" transform="translate(613,460)"/>
<path d="M0 0 C0.33 0 0.66 0 1 0 C1.08114106 1.77007714 1.13925505 3.54122098 1.1875 5.3125 C1.23970703 6.79169922 1.23970703 6.79169922 1.29296875 8.30078125 C1 11 1 11 -0.51171875 12.85546875 C-1.00285156 13.23316406 -1.49398437 13.61085938 -2 14 C-1.43393721 9.30976546 -0.81462495 4.65499974 0 0 Z " fill="#D5E5F1" transform="translate(710,395)"/>
<path d="M0 0 C1.65 0 3.3 0 5 0 C2.51047079 2.66735273 0.36591866 4.55746343 -3 6 C-2.67 4.68 -2.34 3.36 -2 2 C-1.34 2 -0.68 2 0 2 C0 1.34 0 0.68 0 0 Z " fill="#3F628F" transform="translate(571,608)"/>
<path d="M0 0 C0.33 0.99 0.66 1.98 1 3 C-0.65 4.65 -2.3 6.3 -4 8 C-4.33 7.01 -4.66 6.02 -5 5 C-3.35 3.35 -1.7 1.7 0 0 Z " fill="#E1F0F8" transform="translate(641,422)"/>
<path d="M0 0 C-1.39332574 3.36720387 -2.9789286 4.9859524 -6 7 C-6.33 6.01 -6.66 5.02 -7 4 C-3.375 0 -3.375 0 0 0 Z " fill="#456690" transform="translate(625,343)"/>
<path d="M0 0 C0.33 0.66 0.66 1.32 1 2 C-0.65 4.31 -2.3 6.62 -4 9 C-4.33 7.68 -4.66 6.36 -5 5 C-2.5625 2.25 -2.5625 2.25 0 0 Z " fill="#132850" transform="translate(754,244)"/>
<path d="M0 0 C-0.763125 0.5775 -1.52625 1.155 -2.3125 1.75 C-4.66200917 3.71703093 -6.29323505 5.48476744 -8 8 C-8.36075949 3.55063291 -8.36075949 3.55063291 -6.8125 1.1875 C-4.44017475 -0.36678206 -2.77958655 -0.22537188 0 0 Z " fill="#D3DDEA" transform="translate(486,596)"/>
<path d="M0 0 C1.98 1.65 3.96 3.3 6 5 C5.01 5.99 4.02 6.98 3 8 C1.0549 5.08235 0.54723683 3.37462715 0 0 Z " fill="#3F5980" transform="translate(459,419)"/>
<path d="M0 0 C0.99 0.33 1.98 0.66 3 1 C-0.465 3.97 -0.465 3.97 -4 7 C-4 4 -4 4 -2 1.8125 C-1.34 1.214375 -0.68 0.61625 0 0 Z " fill="#E1EFFA" transform="translate(664,321)"/>
<path d="M0 0 C4.43458973 1.3937282 6.87378374 3.60582235 10 7 C6.433255 7 5.89456323 6.36308045 3.3125 4.0625 C2.68988281 3.51722656 2.06726563 2.97195313 1.42578125 2.41015625 C0.95527344 1.94480469 0.48476563 1.47945313 0 1 C0 0.67 0 0.34 0 0 Z " fill="#4A6993" transform="translate(569,280)"/>
<path d="M0 0 C4 2 4 2 6 5 C5.67 6.32 5.34 7.64 5 9 C3.35 6.03 1.7 3.06 0 0 Z " fill="#293A5F" transform="translate(356,515)"/>
<path d="M0 0 C3.91402949 1.26941497 5.79072873 2.51167694 8 6 C7.67 6.66 7.34 7.32 7 8 C5.8274869 7.04882866 4.66212985 6.08882991 3.5 5.125 C2.8503125 4.59132813 2.200625 4.05765625 1.53125 3.5078125 C1.0259375 3.01023437 0.520625 2.51265625 0 2 C0 1.34 0 0.68 0 0 Z " fill="#1E3055" transform="translate(516,508)"/>
<path d="M0 0 C0.66 0.33 1.32 0.66 2 1 C0.35 3.64 -1.3 6.28 -3 9 C-3.33 7.68 -3.66 6.36 -4 5 C-2.0625 2.25 -2.0625 2.25 0 0 Z " fill="#E1EFF8" transform="translate(713,320)"/>
<path d="M0 0 C0.99 0 1.98 0 3 0 C1.25 5.75 1.25 5.75 -1 8 C-1.125 2.25 -1.125 2.25 0 0 Z " fill="#2B3E65" transform="translate(423,315)"/>
<path d="M0 0 C0.99 0.33 1.98 0.66 3 1 C0.69 3.31 -1.62 5.62 -4 8 C-4.33 7.01 -4.66 6.02 -5 5 C-3.35 3.35 -1.7 1.7 0 0 Z " fill="#12234C" transform="translate(411,257)"/>
<path d="M0 0 C0.33 0.99 0.66 1.98 1 3 C-1.3125 4.5625 -1.3125 4.5625 -4 6 C-4.99 5.67 -5.98 5.34 -7 5 C-4.69 3.35 -2.38 1.7 0 0 Z " fill="#293C63" transform="translate(437,252)"/>
<path d="M0 0 C0 0.66 0 1.32 0 2 C-2.31 2 -4.62 2 -7 2 C-7 1.34 -7 0.68 -7 0 C-4.3333581 -1.33332095 -2.83319697 -0.67102033 0 0 Z " fill="#DBE4EF" transform="translate(468,529)"/>
<path d="M0 0 C0 0.99 0 1.98 0 3 C-0.66 3 -1.32 3 -2 3 C-2.66 4.32 -3.32 5.64 -4 7 C-4.66 6.67 -5.32 6.34 -6 6 C-3.375 1.125 -3.375 1.125 0 0 Z " fill="#31588B" transform="translate(604,385)"/>
<path d="M0 0 C0.99 0.33 1.98 0.66 3 1 C2.67 1.99 2.34 2.98 2 4 C-0.5625 5.1875 -0.5625 5.1875 -3 6 C-3.33 5.34 -3.66 4.68 -4 4 C-2.68 3.67 -1.36 3.34 0 3 C0 2.01 0 1.02 0 0 Z " fill="#DAECF7" transform="translate(563,355)"/>
</svg>
